<?xml version="1.0" encoding="UTF-8" standalone="no"?>
<!-- Created with Inkscape (http://www.inkscape.org/) -->

<svg
   xmlns:dc="http://purl.org/dc/elements/1.1/"
   xmlns:cc="http://creativecommons.org/ns#"
   xmlns:rdf="http://www.w3.org/1999/02/22-rdf-syntax-ns#"
   xmlns:svg="http://www.w3.org/2000/svg"
   xmlns="http://www.w3.org/2000/svg"
   xmlns:sodipodi="http://sodipodi.sourceforge.net/DTD/sodipodi-0.dtd"
   xmlns:inkscape="http://www.inkscape.org/namespaces/inkscape"
   version="1.1"
   id="svg3839"
   xml:space="preserve"
   width="1600"
   height="2614.6667"
   viewBox="0 0 1600 2614.6667"
   sodipodi:docname="Ron Maxedon Resume Landing Page 02-mix.ai.svg"
   inkscape:version="0.92.1 15371"><metadata
     id="metadata3845"><rdf:RDF><cc:Work
         rdf:about=""><dc:format>image/svg+xml</dc:format><dc:type
           rdf:resource="http://purl.org/dc/dcmitype/StillImage" /><dc:title></dc:title></cc:Work></rdf:RDF></metadata><defs
     id="defs3843"><clipPath
       clipPathUnits="userSpaceOnUse"
       id="clipPath3857"><path
         d="M 0,1961 H 1200 V 0 H 0 Z"
         id="path3855"
         inkscape:connector-curvature="0" /></clipPath><clipPath
       clipPathUnits="userSpaceOnUse"
       id="clipPath3877"><path
         d="M 0,1961 H 1200 V 0 H 0 Z"
         id="path3875"
         inkscape:connector-curvature="0" /></clipPath><clipPath
       clipPathUnits="userSpaceOnUse"
       id="clipPath3903"><path
         d="M 0,1961 H 1200 V 0 H 0 Z"
         id="path3901"
         inkscape:connector-curvature="0" /></clipPath><clipPath
       clipPathUnits="userSpaceOnUse"
       id="clipPath3939"><path
         d="M 0,1961 H 1200 V 0 H 0 Z"
         id="path3937"
         inkscape:connector-curvature="0" /></clipPath><clipPath
       clipPathUnits="userSpaceOnUse"
       id="clipPath3955"><path
         d="M 0,1961 H 1200 V 0 H 0 Z"
         id="path3953"
         inkscape:connector-curvature="0" /></clipPath><clipPath
       clipPathUnits="userSpaceOnUse"
       id="clipPath3971"><path
         d="M 0,1961 H 1200 V 0 H 0 Z"
         id="path3969"
         inkscape:connector-curvature="0" /></clipPath><clipPath
       clipPathUnits="userSpaceOnUse"
       id="clipPath3987"><path
         d="M 0,1961 H 1200 V 0 H 0 Z"
         id="path3985"
         inkscape:connector-curvature="0" /></clipPath><clipPath
       clipPathUnits="userSpaceOnUse"
       id="clipPath4009"><path
         d="M 0,1961 H 1200 V 0 H 0 Z"
         id="path4007"
         inkscape:connector-curvature="0" /></clipPath><clipPath
       clipPathUnits="userSpaceOnUse"
       id="clipPath4045"><path
         d="M 0,1961 H 1200 V 0 H 0 Z"
         id="path4043"
         inkscape:connector-curvature="0" /></clipPath><clipPath
       clipPathUnits="userSpaceOnUse"
       id="clipPath4053"><path
         d="m 1000,2055 h 200 V -48 h -200 z"
         id="path4051"
         inkscape:connector-curvature="0" /></clipPath><clipPath
       clipPathUnits="userSpaceOnUse"
       id="clipPath4067"><path
         d="M 0,2055 H 200 V -48 H 0 Z"
         id="path4065"
         inkscape:connector-curvature="0" /></clipPath><clipPath
       clipPathUnits="userSpaceOnUse"
       id="clipPath4081"><path
         d="m 500,1335.5 h 75 v -300 h -75 z"
         id="path4079"
         inkscape:connector-curvature="0" /></clipPath><clipPath
       clipPathUnits="userSpaceOnUse"
       id="clipPath4095"><path
         d="m 500,759.813 h 75 V 399.321 h -75 z"
         id="path4093"
         inkscape:connector-curvature="0" /></clipPath><clipPath
       clipPathUnits="userSpaceOnUse"
       id="clipPath4109"><path
         d="M 0,1961 H 1200 V 1811 H 0 Z"
         id="path4107"
         inkscape:connector-curvature="0" /></clipPath><clipPath
       clipPathUnits="userSpaceOnUse"
       id="clipPath4123"><path
         d="m 0,1560.5 h 1200 v -150 H 0 Z"
         id="path4121"
         inkscape:connector-curvature="0" /></clipPath><clipPath
       clipPathUnits="userSpaceOnUse"
       id="clipPath4137"><path
         d="m 200,1410.5 h 300 v -75 H 200 Z"
         id="path4135"
         inkscape:connector-curvature="0" /></clipPath><clipPath
       clipPathUnits="userSpaceOnUse"
       id="clipPath4151"><path
         d="m 575,1410.4 h 300 v -105 H 575 Z"
         id="path4149"
         inkscape:connector-curvature="0" /></clipPath><clipPath
       clipPathUnits="userSpaceOnUse"
       id="clipPath4165"><path
         d="m 575,1035.5 h 425 v -75 H 575 Z"
         id="path4163"
         inkscape:connector-curvature="0" /></clipPath><clipPath
       clipPathUnits="userSpaceOnUse"
       id="clipPath4179"><path
         d="m 200,960.5 h 425 v -75 H 200 Z"
         id="path4177"
         inkscape:connector-curvature="0" /></clipPath><clipPath
       clipPathUnits="userSpaceOnUse"
       id="clipPath4193"><path
         d="m 200,399.321 h 800 v -75 H 200 Z"
         id="path4191"
         inkscape:connector-curvature="0" /></clipPath><clipPath
       clipPathUnits="userSpaceOnUse"
       id="clipPath4207"><path
         d="m 200,324.321 h 800 v -75 H 200 Z"
         id="path4205"
         inkscape:connector-curvature="0" /></clipPath><clipPath
       clipPathUnits="userSpaceOnUse"
       id="clipPath4221"><path
         d="m 200,222.321 h 800 v -75 H 200 Z"
         id="path4219"
         inkscape:connector-curvature="0" /></clipPath><clipPath
       clipPathUnits="userSpaceOnUse"
       id="clipPath4235"><path
         d="m 940,127.321 h 10 v -10 h -10 z"
         id="path4233"
         inkscape:connector-curvature="0" /></clipPath><clipPath
       clipPathUnits="userSpaceOnUse"
       id="clipPath4249"><path
         d="m 880,127.321 h 10 v -10 h -10 z"
         id="path4247"
         inkscape:connector-curvature="0" /></clipPath><clipPath
       clipPathUnits="userSpaceOnUse"
       id="clipPath4263"><path
         d="m 820,127.321 h 10 v -10 h -10 z"
         id="path4261"
         inkscape:connector-curvature="0" /></clipPath><clipPath
       clipPathUnits="userSpaceOnUse"
       id="clipPath4277"><path
         d="m 760,127.321 h 10 v -10 h -10 z"
         id="path4275"
         inkscape:connector-curvature="0" /></clipPath><clipPath
       clipPathUnits="userSpaceOnUse"
       id="clipPath4291"><path
         d="m 200,70.3206 h 800 V 0 H 200 Z"
         id="path4289"
         inkscape:connector-curvature="0" /></clipPath><clipPath
       clipPathUnits="userSpaceOnUse"
       id="clipPath4305"><path
         d="m 575,1232.81 h 425 v -50 H 575 Z"
         id="path4303"
         inkscape:connector-curvature="0" /></clipPath><clipPath
       clipPathUnits="userSpaceOnUse"
       id="clipPath4319"><path
         d="m 200,809.813 h 425 v -50 H 200 Z"
         id="path4317"
         inkscape:connector-curvature="0" /></clipPath><clipPath
       clipPathUnits="userSpaceOnUse"
       id="clipPath4333"><path
         d="m 200,655.313 h 300 v -25 H 200 Z"
         id="path4331"
         inkscape:connector-curvature="0" /></clipPath><clipPath
       clipPathUnits="userSpaceOnUse"
       id="clipPath4347"><path
         d="m 200,742.313 h 300 v -15 H 200 Z"
         id="path4345"
         inkscape:connector-curvature="0" /></clipPath><clipPath
       clipPathUnits="userSpaceOnUse"
       id="clipPath4361"><path
         d="m 575,742.313 h 300 v -15 H 575 Z"
         id="path4359"
         inkscape:connector-curvature="0" /></clipPath><clipPath
       clipPathUnits="userSpaceOnUse"
       id="clipPath4375"><path
         d="m 200,614.321 h 300 v -15 H 200 Z"
         id="path4373"
         inkscape:connector-curvature="0" /></clipPath><clipPath
       clipPathUnits="userSpaceOnUse"
       id="clipPath4389"><path
         d="m 200,527.313 h 300 v -25 H 200 Z"
         id="path4387"
         inkscape:connector-curvature="0" /></clipPath><clipPath
       clipPathUnits="userSpaceOnUse"
       id="clipPath4403"><path
         d="m 575,457.321 h 300 v -25 H 575 Z"
         id="path4401"
         inkscape:connector-curvature="0" /></clipPath><clipPath
       clipPathUnits="userSpaceOnUse"
       id="clipPath4417"><path
         d="m 200,486.321 h 300 v -15 H 200 Z"
         id="path4415"
         inkscape:connector-curvature="0" /></clipPath></defs><sodipodi:namedview
     pagecolor="#ffffff"
     bordercolor="#666666"
     borderopacity="1"
     objecttolerance="10"
     gridtolerance="10"
     guidetolerance="10"
     inkscape:pageopacity="0"
     inkscape:pageshadow="2"
     inkscape:window-width="1863"
     inkscape:window-height="1056"
     id="namedview3841"
     showgrid="false"
     inkscape:zoom="0.32508925"
     inkscape:cx="799.99998"
     inkscape:cy="1307.3333"
     inkscape:window-x="57"
     inkscape:window-y="24"
     inkscape:window-maximized="1"
     inkscape:current-layer="g3847" /><g
     id="g3847"
     inkscape:groupmode="layer"
     inkscape:label="Ron Maxedon Resume Landing Page 02-mix"
     transform="matrix(1.3333333,0,0,-1.3333333,0,2614.6667)"><path
       d="m 0,1411 h 1200 v 550 H 0 Z"
       style="fill:#43505a;fill-opacity:1;fill-rule:nonzero;stroke:none"
       id="path3849"
       inkscape:connector-curvature="0" /><g
       id="g3851"><g
         id="g3853"
         clip-path="url(#clipPath3857)"><g
           id="g3859"
           transform="translate(500,1185.5)"><path
             d="m 0,0 c 0,-82.843 -67.157,-150 -150,-150 -82.843,0 -150,67.157 -150,150 0,82.843 67.157,150 150,150 C -67.157,150 0,82.843 0,0"
             style="fill:#cdae8e;fill-opacity:1;fill-rule:nonzero;stroke:none"
             id="path3861"
             inkscape:connector-curvature="0" /></g></g></g><text
       transform="matrix(1,0,0,-1,196,1749.2852)"
       style="font-variant:normal;font-weight:900;font-stretch:normal;font-size:85px;font-family:'Heebo Black';-inkscape-font-specification:Heebo-Black;writing-mode:lr-tb;fill:#ffffff;fill-opacity:1;fill-rule:nonzero;stroke:none"
       id="text3869"><tspan
         x="0 29.452499 91.587502 148.2655 200.71899 259.53049 310.24149 367.02151 423.07901 452.53149 515.30402 577.54102"
         y="0"
         sodipodi:role="line"
         id="tspan3863">INTERESTING </tspan><tspan
         x="0 63.580002 116.28 178.0835 236.1555 284.23151 313.6925 377.27249 428.961"
         y="95.029999"
         sodipodi:role="line"
         id="tspan3865">HEADLINE </tspan><tspan
         x="0 61.200001 123.4455 174.14799 232.067 257.48199 321.06201 373.5155 432.33551"
         y="190.06"
         sodipodi:role="line"
         id="tspan3867">GOES HERE</tspan></text>
<g
       id="g3871"><g
         id="g3873"
         clip-path="url(#clipPath3877)"><path
           d="M 1050,1911 H 150 v -450 h 900 z m -2,-448 H 152 v 446 h 896 z"
           style="fill:#808184;fill-opacity:1;fill-rule:nonzero;stroke:none"
           id="path3879"
           inkscape:connector-curvature="0" /></g></g><text
       transform="matrix(1,0,0,-1,574.9995,1283.7627)"
       style="font-variant:normal;font-weight:normal;font-stretch:normal;font-size:30px;font-family:Heebo;-inkscape-font-specification:Heebo-Regular;writing-mode:lr-tb;fill:#afc5d1;fill-opacity:1;fill-rule:nonzero;stroke:none"
       id="text3883"><tspan
         x="0 22.746 42.176998 59.252998 66.663002 75.602997 103.509 123.039 131.979 154.974 176.19901 203.75999 222.3 231.24001 240.726"
         y="0"
         sodipodi:role="line"
         id="tspan3881">HEY, MY NAME IS</tspan></text>
<text
       transform="matrix(1,0,0,-1,574.9995,1233.7627)"
       style="font-variant:normal;font-weight:900;font-stretch:normal;font-size:50px;font-family:'Heebo Black';-inkscape-font-specification:Heebo-Black;writing-mode:lr-tb;fill:#43505a;fill-opacity:1;fill-rule:nonzero;stroke:none"
       id="text3887"><tspan
         x="0 34.235001 71.114998 108.65 123.6 169.8 207.78 242.13 273.22501 307.47 344.35501"
         y="0"
         sodipodi:role="line"
         id="tspan3885">RON MAXEDON</tspan></text>
<text
       transform="matrix(1,0,0,-1,574.9995,1159.2129)"
       style="font-variant:normal;font-weight:normal;font-stretch:normal;font-size:30px;font-family:Montserrat;-inkscape-font-specification:Montserrat-Regular;writing-mode:lr-tb;fill:#808184;fill-opacity:1;fill-rule:nonzero;stroke:none"
       id="text3895"><tspan
         x="0 10.38 19.74 37.971001 70.791 80.151001 99.081001 108.441 117.324 137.427 157.959 167.118 186.72 199.67999 209.03999 226.722 246.73801 255.759 265.80899 275.16901 294.15302 307.16101 325.716 343.06799 362.02802"
         y="0"
         sodipodi:role="line"
         id="tspan3889">I am a junior Full Stack </tspan><tspan
         x="0 31.509001 50.049 71.889 81.249001 106.188 124.728 140.895 159.47701 168.96899 188.49899 210.186 228.80701 241.767 251.127 260.24399 269.57999 286.056 294.936 315.83099 336.47101"
         y="39.990002"
         sodipodi:role="line"
         id="tspan3891">Web Developer living </tspan><tspan
         x="0 8.8800001 30.15 39.509998 56.025002 75.821999 91.122002 100.482 123.354 144.24899 164.547 183.117 192.597 211.467 226.81799"
         y="79.980003"
         sodipodi:role="line"
         id="tspan3893">in Los Angeles.</tspan></text>
<g
       id="g3897"><g
         id="g3899"
         clip-path="url(#clipPath3903)"><path
           d="M 1200,324.321 H 0 V 960.5 h 1200 z"
           style="fill:#d4d6d7;fill-opacity:1;fill-rule:nonzero;stroke:none"
           id="path3905"
           inkscape:connector-curvature="0" /><path
           d="M 1200,0 H 0 v 324.321 h 1200 z"
           style="fill:#43505a;fill-opacity:1;fill-rule:nonzero;stroke:none"
           id="path3907"
           inkscape:connector-curvature="0" /></g></g><text
       transform="matrix(1,0,0,-1,199.9995,859.8359)"
       style="font-variant:normal;font-weight:normal;font-stretch:normal;font-size:30px;font-family:Heebo;-inkscape-font-specification:Heebo-Regular;writing-mode:lr-tb;fill:#ffffff;fill-opacity:1;fill-rule:nonzero;stroke:none"
       id="text3911"><tspan
         x="0 9.6599998 18.6 37.965 60.603001 70.056 92.802002 113.112 122.052 150.162 168.702 177.642 197.073 219.813 241.953 263.004 280.61401"
         y="0"
         sodipodi:role="line"
         id="tspan3909">I THINK WE SHOULD</tspan></text>
<text
       transform="matrix(1,0,0,-1,199.9995,809.8359)"
       style="font-variant:normal;font-weight:900;font-stretch:normal;font-size:50px;font-family:'Heebo Black';-inkscape-font-specification:Heebo-Black;writing-mode:lr-tb;fill:#43505a;fill-opacity:1;fill-rule:nonzero;stroke:none"
       id="text3915"><tspan
         x="0 44.57 81.449997 116.325 150.905 165.855 199.005 235.44 272.14001 302.875 336.5 374.14999 405.245"
         y="0"
         sodipodi:role="line"
         id="tspan3913">WORK TOGETHER</tspan></text>
<text
       transform="matrix(1,0,0,-1,200,743.7129)"
       style="font-variant:normal;font-weight:normal;font-stretch:normal;font-size:18px;font-family:Montserrat;-inkscape-font-specification:Montserrat-Regular;writing-mode:lr-tb;fill:#808184;fill-opacity:1;fill-rule:nonzero;stroke:none"
       id="text3919"><tspan
         x="0 14.8932 25.9056 45.442799 56.3778"
         y="0"
         sodipodi:role="line"
         id="tspan3917">Name*</tspan></text>
<text
       transform="matrix(1,0,0,-1,200,133.7109)"
       style="font-variant:normal;font-weight:bold;font-stretch:normal;font-size:18px;font-family:Montserrat;-inkscape-font-specification:Montserrat-Bold;writing-mode:lr-tb;fill:#808184;fill-opacity:1;fill-rule:nonzero;stroke:none"
       id="text3923"><tspan
         x="0 13.7088 25.966801 38.998798 43.894798 61.648201 73.265404 84.7062 96.440399 109.5282 121.7862"
         y="0"
         sodipodi:role="line"
         id="tspan3921">Ron Maxedon</tspan></text>
<text
       transform="matrix(1,0,0,-1,200,112.7049)"
       style="font-variant:normal;font-weight:normal;font-stretch:normal;font-size:18px;font-family:Montserrat;-inkscape-font-specification:Montserrat-Regular;writing-mode:lr-tb;fill:#808184;fill-opacity:1;fill-rule:nonzero;stroke:none"
       id="text3931"><tspan
         x="0 10.6848 22.77 28.26 34.290001 39.905998 51.373798 59.248798 70.452003 80.942398 92.318398 97.934402 116.9208 128.11681 141.22079 146.83681 161.86681 173.06281 182.83681 194.058 199.8252 211.6152 224.6958 235.9386"
         y="0"
         sodipodi:role="line"
         id="tspan3925">Full Stack Web Developer</tspan><tspan
         x="0 9.9846001 21.933001 31.113001 36.729 50.5224 63.129601 75.378601 86.598 92.365196 103.7574 113.0148 117.5868 123.2028 136.584 147.564 153.1116 158.50259 165.4794 177.31081 184.8438 197.235 202.698"
         y="21.006001"
         sodipodi:role="line"
         id="tspan3927">Los Angeles, California</tspan><tspan
         x="0 13.518 27.035999 40.379398 44.524799 58.042801 71.560799 84.904198 89.049599 102.5676 116.0856"
         y="42.012001"
         sodipodi:role="line"
         id="tspan3929">000.000.000</tspan></text>
<g
       id="g3933"><g
         id="g3935"
         clip-path="url(#clipPath3939)"><path
           d="m 200.5,726.812 h 299 v -71 h -299 z"
           style="fill:#ffffff;fill-opacity:1;fill-rule:nonzero;stroke:none"
           id="path3941"
           inkscape:connector-curvature="0" /><path
           d="M 500,727.313 H 200 v -72 h 300 z m -1,-71 H 201 v 70 h 298 z"
           style="fill:#808184;fill-opacity:1;fill-rule:nonzero;stroke:none"
           id="path3943"
           inkscape:connector-curvature="0" /></g></g><text
       transform="matrix(1,0,0,-1,575,743.7129)"
       style="font-variant:normal;font-weight:normal;font-stretch:normal;font-size:18px;font-family:Montserrat;-inkscape-font-specification:Montserrat-Regular;writing-mode:lr-tb;fill:#808184;fill-opacity:1;fill-rule:nonzero;stroke:none"
       id="text3947"><tspan
         x="0 17.618401 29.010599 38.266201 47.421001 58.624199 70.873199 81.8172"
         y="0"
         sodipodi:role="line"
         id="tspan3945">Message*</tspan></text>
<g
       id="g3949"><g
         id="g3951"
         clip-path="url(#clipPath3955)"><path
           d="m 575.5,726.812 h 424 V 457.82 h -424 z"
           style="fill:#ffffff;fill-opacity:1;fill-rule:nonzero;stroke:none"
           id="path3957"
           inkscape:connector-curvature="0" /><path
           d="M 1000,727.313 H 575 V 457.321 h 425 z M 999,458.321 H 576 v 267.992 h 423 z"
           style="fill:#808184;fill-opacity:1;fill-rule:nonzero;stroke:none"
           id="path3959"
           inkscape:connector-curvature="0" /></g></g><text
       transform="matrix(1,0,0,-1,200,614.7207)"
       style="font-variant:normal;font-weight:normal;font-stretch:normal;font-size:18px;font-family:Montserrat;-inkscape-font-specification:Montserrat-Regular;writing-mode:lr-tb;fill:#808184;fill-opacity:1;fill-rule:nonzero;stroke:none"
       id="text3963"><tspan
         x="0 12.06 31.498199 42.487202 47.8368 53.5788"
         y="0"
         sodipodi:role="line"
         id="tspan3961">Email*</tspan></text>
<g
       id="g3965"><g
         id="g3967"
         clip-path="url(#clipPath3971)"><path
           d="m 200.5,598.82 h 299 v -71 h -299 z"
           style="fill:#ffffff;fill-opacity:1;fill-rule:nonzero;stroke:none"
           id="path3973"
           inkscape:connector-curvature="0" /><path
           d="M 500,599.321 H 200 v -72 h 300 z m -1,-71 H 201 v 70 h 298 z"
           style="fill:#808184;fill-opacity:1;fill-rule:nonzero;stroke:none"
           id="path3975"
           inkscape:connector-curvature="0" /></g></g><text
       transform="matrix(1,0,0,-1,200,486.7207)"
       style="font-variant:normal;font-weight:normal;font-stretch:normal;font-size:18px;font-family:Montserrat;-inkscape-font-specification:Montserrat-Regular;writing-mode:lr-tb;fill:#808184;fill-opacity:1;fill-rule:nonzero;stroke:none"
       id="text3979"><tspan
         x="0 11.7342 23.8302 36.6534 42.132599 53.6166 64.546204 72.745201"
         y="0"
         sodipodi:role="line"
         id="tspan3977">Subject*</tspan></text>
<g
       id="g3981"><g
         id="g3983"
         clip-path="url(#clipPath3987)"><path
           d="m 200.5,470.82 h 299 v -71 h -299 z"
           style="fill:#ffffff;fill-opacity:1;fill-rule:nonzero;stroke:none"
           id="path3989"
           inkscape:connector-curvature="0" /><path
           d="M 500,471.321 H 200 v -72 h 300 z m -1,-71 H 201 v 70 h 298 z"
           style="fill:#808184;fill-opacity:1;fill-rule:nonzero;stroke:none"
           id="path3991"
           inkscape:connector-curvature="0" /><path
           d="M 668.918,399.321 H 575 v 33 h 93.918 z"
           style="fill:#43505a;fill-opacity:1;fill-rule:nonzero;stroke:none"
           id="path3993"
           inkscape:connector-curvature="0" /></g></g><text
       transform="matrix(1,0,0,-1,585,409.3203)"
       style="font-variant:normal;font-weight:500;font-stretch:normal;font-size:18px;font-family:'Montserrat Medium';-inkscape-font-specification:Montserrat-Medium;writing-mode:lr-tb;fill:#ffffff;fill-opacity:1;fill-rule:nonzero;stroke:none"
       id="text3997"><tspan
         x="0 11.9952 26.3232 39.805199 57.373199 63.478802"
         y="0"
         sodipodi:role="line"
         id="tspan3995">SUBMIT</tspan></text>
<text
       transform="matrix(1,0,0,-1,391.6289,224.9395)"
       style="font-variant:normal;font-weight:normal;font-stretch:normal;font-size:30px;font-family:Montserrat;-inkscape-font-specification:Montserrat-Regular;writing-mode:lr-tb;fill:#afc5d1;fill-opacity:1;fill-rule:nonzero;stroke:none"
       id="text4001"><tspan
         x="0 19.556999 38.178001 50.612999 59.771999 79.542 100.074 115.374 124.734 146.04601 166.008 184.87801 199.716 220.116 226.97701 240.38699 249.74699 264.86401 283.44601 292.46701 302.517 311.87701 326.625 335.73901 344.61899 365.151 384.74701 401.439"
         y="0"
         sodipodi:role="line"
         id="tspan3999">Serious doesn’t sell slinkys</tspan></text>
<g
       id="g4003"><g
         id="g4005"
         clip-path="url(#clipPath4009)"><g
           id="g4011"
           transform="translate(820,233.3333)"><path
             d="M 0,0 H 180"
             style="fill:none;stroke:#afc5d1;stroke-width:1;stroke-linecap:butt;stroke-linejoin:miter;stroke-miterlimit:10;stroke-dasharray:none;stroke-opacity:1"
             id="path4013"
             inkscape:connector-curvature="0" /></g><g
           id="g4015"
           transform="translate(200,233.3333)"><path
             d="M 0,0 H 180"
             style="fill:none;stroke:#afc5d1;stroke-width:1;stroke-linecap:butt;stroke-linejoin:miter;stroke-miterlimit:10;stroke-dasharray:none;stroke-opacity:1"
             id="path4017"
             inkscape:connector-curvature="0" /></g><g
           id="g4019"
           transform="translate(1000,122.3206)"><path
             d="m 0,0 c 0,-13.807 -11.193,-25 -25,-25 -13.807,0 -25,11.193 -25,25 0,13.807 11.193,25 25,25 C -11.193,25 0,13.807 0,0"
             style="fill:#0000ff;fill-opacity:1;fill-rule:nonzero;stroke:none"
             id="path4021"
             inkscape:connector-curvature="0" /></g><g
           id="g4023"
           transform="translate(940,122.3206)"><path
             d="m 0,0 c 0,-13.807 -11.193,-25 -25,-25 -13.807,0 -25,11.193 -25,25 0,13.807 11.193,25 25,25 C -11.193,25 0,13.807 0,0"
             style="fill:#0000ff;fill-opacity:1;fill-rule:nonzero;stroke:none"
             id="path4025"
             inkscape:connector-curvature="0" /></g><g
           id="g4027"
           transform="translate(880,122.3206)"><path
             d="m 0,0 c 0,-13.807 -11.193,-25 -25,-25 -13.807,0 -25,11.193 -25,25 0,13.807 11.193,25 25,25 C -11.193,25 0,13.807 0,0"
             style="fill:#0000ff;fill-opacity:1;fill-rule:nonzero;stroke:none"
             id="path4029"
             inkscape:connector-curvature="0" /></g><g
           id="g4031"
           transform="translate(820,122.3206)"><path
             d="m 0,0 c 0,-13.807 -11.193,-25 -25,-25 -13.807,0 -25,11.193 -25,25 0,13.807 11.193,25 25,25 C -11.193,25 0,13.807 0,0"
             style="fill:#0000ff;fill-opacity:1;fill-rule:nonzero;stroke:none"
             id="path4033"
             inkscape:connector-curvature="0" /></g><g
           id="g4035"
           transform="translate(760,122.3206)"><path
             d="m 0,0 c 0,-13.807 -11.193,-25 -25,-25 -13.807,0 -25,11.193 -25,25 0,13.807 11.193,25 25,25 C -11.193,25 0,13.807 0,0"
             style="fill:#0000ff;fill-opacity:1;fill-rule:nonzero;stroke:none"
             id="path4037"
             inkscape:connector-curvature="0" /></g></g></g><g
       id="g4039"><g
         id="g4041"
         clip-path="url(#clipPath4045)"><g
           id="g4047"><g
             id="g4049" /><g
             id="g4059"><g
               clip-path="url(#clipPath4053)"
               id="g4057"
               style="opacity:0.5"><path
                 d="m 1200,-48 h -200 v 2103 h 200 z"
                 style="fill:#ff00ff;fill-opacity:1;fill-rule:nonzero;stroke:none"
                 id="path4055"
                 inkscape:connector-curvature="0" /></g></g></g><g
           id="g4061"><g
             id="g4063" /><g
             id="g4073"><g
               clip-path="url(#clipPath4067)"
               id="g4071"
               style="opacity:0.5"><path
                 d="M 200,-48 H 0 v 2103 h 200 z"
                 style="fill:#ff00ff;fill-opacity:1;fill-rule:nonzero;stroke:none"
                 id="path4069"
                 inkscape:connector-curvature="0" /></g></g></g><g
           id="g4075"><g
             id="g4077" /><g
             id="g4087"><g
               clip-path="url(#clipPath4081)"
               id="g4085"
               style="opacity:0.5"><path
                 d="m 575,1035.5 h -75 v 300 h 75 z"
                 style="fill:#ff00ff;fill-opacity:1;fill-rule:nonzero;stroke:none"
                 id="path4083"
                 inkscape:connector-curvature="0" /></g></g></g><g
           id="g4089"><g
             id="g4091" /><g
             id="g4101"><g
               clip-path="url(#clipPath4095)"
               id="g4099"
               style="opacity:0.5"><path
                 d="m 575,399.321 h -75 v 360.492 h 75 z"
                 style="fill:#ff00ff;fill-opacity:1;fill-rule:nonzero;stroke:none"
                 id="path4097"
                 inkscape:connector-curvature="0" /></g></g></g><g
           id="g4103"><g
             id="g4105" /><g
             id="g4115"><g
               clip-path="url(#clipPath4109)"
               id="g4113"
               style="opacity:0.5"><path
                 d="M 1200,1811 H 0 v 150 h 1200 z"
                 style="fill:#ff00ff;fill-opacity:1;fill-rule:nonzero;stroke:none"
                 id="path4111"
                 inkscape:connector-curvature="0" /></g></g></g><g
           id="g4117"><g
             id="g4119" /><g
             id="g4129"><g
               clip-path="url(#clipPath4123)"
               id="g4127"
               style="opacity:0.5"><path
                 d="M 1200,1410.5 H 0 v 150 h 1200 z"
                 style="fill:#ff00ff;fill-opacity:1;fill-rule:nonzero;stroke:none"
                 id="path4125"
                 inkscape:connector-curvature="0" /></g></g></g><g
           id="g4131"><g
             id="g4133" /><g
             id="g4143"><g
               clip-path="url(#clipPath4137)"
               id="g4141"
               style="opacity:0.5"><path
                 d="M 500,1335.5 H 200 v 75 h 300 z"
                 style="fill:#ff00ff;fill-opacity:1;fill-rule:nonzero;stroke:none"
                 id="path4139"
                 inkscape:connector-curvature="0" /></g></g></g><g
           id="g4145"><g
             id="g4147" /><g
             id="g4157"><g
               clip-path="url(#clipPath4151)"
               id="g4155"
               style="opacity:0.5"><path
                 d="M 875,1305.398 H 575 v 105 h 300 z"
                 style="fill:#ff00ff;fill-opacity:1;fill-rule:nonzero;stroke:none"
                 id="path4153"
                 inkscape:connector-curvature="0" /></g></g></g><g
           id="g4159"><g
             id="g4161" /><g
             id="g4171"><g
               clip-path="url(#clipPath4165)"
               id="g4169"
               style="opacity:0.5"><path
                 d="M 1000,960.5 H 575 v 75 h 425 z"
                 style="fill:#ff00ff;fill-opacity:1;fill-rule:nonzero;stroke:none"
                 id="path4167"
                 inkscape:connector-curvature="0" /></g></g></g><g
           id="g4173"><g
             id="g4175" /><g
             id="g4185"><g
               clip-path="url(#clipPath4179)"
               id="g4183"
               style="opacity:0.5"><path
                 d="M 625,885.5 H 200 v 75 h 425 z"
                 style="fill:#ff00ff;fill-opacity:1;fill-rule:nonzero;stroke:none"
                 id="path4181"
                 inkscape:connector-curvature="0" /></g></g></g><g
           id="g4187"><g
             id="g4189" /><g
             id="g4199"><g
               clip-path="url(#clipPath4193)"
               id="g4197"
               style="opacity:0.5"><path
                 d="M 1000,324.321 H 200 v 75 h 800 z"
                 style="fill:#ff00ff;fill-opacity:1;fill-rule:nonzero;stroke:none"
                 id="path4195"
                 inkscape:connector-curvature="0" /></g></g></g><g
           id="g4201"><g
             id="g4203" /><g
             id="g4213"><g
               clip-path="url(#clipPath4207)"
               id="g4211"
               style="opacity:0.5"><path
                 d="M 1000,249.321 H 200 v 75 h 800 z"
                 style="fill:#ff00ff;fill-opacity:1;fill-rule:nonzero;stroke:none"
                 id="path4209"
                 inkscape:connector-curvature="0" /></g></g></g><g
           id="g4215"><g
             id="g4217" /><g
             id="g4227"><g
               clip-path="url(#clipPath4221)"
               id="g4225"
               style="opacity:0.5"><path
                 d="M 1000,147.321 H 200 v 75 h 800 z"
                 style="fill:#ff00ff;fill-opacity:1;fill-rule:nonzero;stroke:none"
                 id="path4223"
                 inkscape:connector-curvature="0" /></g></g></g><g
           id="g4229"><g
             id="g4231" /><g
             id="g4241"><g
               clip-path="url(#clipPath4235)"
               id="g4239"
               style="opacity:0.5"><path
                 d="m 950,117.321 h -10 v 10 h 10 z"
                 style="fill:#ff00ff;fill-opacity:1;fill-rule:nonzero;stroke:none"
                 id="path4237"
                 inkscape:connector-curvature="0" /></g></g></g><g
           id="g4243"><g
             id="g4245" /><g
             id="g4255"><g
               clip-path="url(#clipPath4249)"
               id="g4253"
               style="opacity:0.5"><path
                 d="m 890,117.321 h -10 v 10 h 10 z"
                 style="fill:#ff00ff;fill-opacity:1;fill-rule:nonzero;stroke:none"
                 id="path4251"
                 inkscape:connector-curvature="0" /></g></g></g><g
           id="g4257"><g
             id="g4259" /><g
             id="g4269"><g
               clip-path="url(#clipPath4263)"
               id="g4267"
               style="opacity:0.5"><path
                 d="m 830,117.321 h -10 v 10 h 10 z"
                 style="fill:#ff00ff;fill-opacity:1;fill-rule:nonzero;stroke:none"
                 id="path4265"
                 inkscape:connector-curvature="0" /></g></g></g><g
           id="g4271"><g
             id="g4273" /><g
             id="g4283"><g
               clip-path="url(#clipPath4277)"
               id="g4281"
               style="opacity:0.5"><path
                 d="m 770,117.321 h -10 v 10 h 10 z"
                 style="fill:#ff00ff;fill-opacity:1;fill-rule:nonzero;stroke:none"
                 id="path4279"
                 inkscape:connector-curvature="0" /></g></g></g><g
           id="g4285"><g
             id="g4287" /><g
             id="g4297"><g
               clip-path="url(#clipPath4291)"
               id="g4295"
               style="opacity:0.5"><path
                 d="M 1000,0 H 200 v 70.321 h 800 z"
                 style="fill:#ff00ff;fill-opacity:1;fill-rule:nonzero;stroke:none"
                 id="path4293"
                 inkscape:connector-curvature="0" /></g></g></g><g
           id="g4299"><g
             id="g4301" /><g
             id="g4311"><g
               clip-path="url(#clipPath4305)"
               id="g4309"
               style="opacity:0.5"><path
                 d="M 1000,1182.813 H 575 v 50 h 425 z"
                 style="fill:#ff00ff;fill-opacity:1;fill-rule:nonzero;stroke:none"
                 id="path4307"
                 inkscape:connector-curvature="0" /></g></g></g><g
           id="g4313"><g
             id="g4315" /><g
             id="g4325"><g
               clip-path="url(#clipPath4319)"
               id="g4323"
               style="opacity:0.5"><path
                 d="M 625,759.813 H 200 v 50 h 425 z"
                 style="fill:#ff00ff;fill-opacity:1;fill-rule:nonzero;stroke:none"
                 id="path4321"
                 inkscape:connector-curvature="0" /></g></g></g><g
           id="g4327"><g
             id="g4329" /><g
             id="g4339"><g
               clip-path="url(#clipPath4333)"
               id="g4337"
               style="opacity:0.5"><path
                 d="M 500,630.313 H 200 v 25 h 300 z"
                 style="fill:#ff00ff;fill-opacity:1;fill-rule:nonzero;stroke:none"
                 id="path4335"
                 inkscape:connector-curvature="0" /></g></g></g><g
           id="g4341"><g
             id="g4343" /><g
             id="g4353"><g
               clip-path="url(#clipPath4347)"
               id="g4351"
               style="opacity:0.5"><path
                 d="M 500,727.313 H 200 v 15 h 300 z"
                 style="fill:#ff00ff;fill-opacity:1;fill-rule:nonzero;stroke:none"
                 id="path4349"
                 inkscape:connector-curvature="0" /></g></g></g><g
           id="g4355"><g
             id="g4357" /><g
             id="g4367"><g
               clip-path="url(#clipPath4361)"
               id="g4365"
               style="opacity:0.5"><path
                 d="M 875,727.313 H 575 v 15 h 300 z"
                 style="fill:#ff00ff;fill-opacity:1;fill-rule:nonzero;stroke:none"
                 id="path4363"
                 inkscape:connector-curvature="0" /></g></g></g><g
           id="g4369"><g
             id="g4371" /><g
             id="g4381"><g
               clip-path="url(#clipPath4375)"
               id="g4379"
               style="opacity:0.5"><path
                 d="M 500,599.321 H 200 v 15 h 300 z"
                 style="fill:#ff00ff;fill-opacity:1;fill-rule:nonzero;stroke:none"
                 id="path4377"
                 inkscape:connector-curvature="0" /></g></g></g><g
           id="g4383"><g
             id="g4385" /><g
             id="g4395"><g
               clip-path="url(#clipPath4389)"
               id="g4393"
               style="opacity:0.5"><path
                 d="M 500,502.313 H 200 v 25 h 300 z"
                 style="fill:#ff00ff;fill-opacity:1;fill-rule:nonzero;stroke:none"
                 id="path4391"
                 inkscape:connector-curvature="0" /></g></g></g><g
           id="g4397"><g
             id="g4399" /><g
             id="g4409"><g
               clip-path="url(#clipPath4403)"
               id="g4407"
               style="opacity:0.5"><path
                 d="M 875,432.321 H 575 v 25 h 300 z"
                 style="fill:#ff00ff;fill-opacity:1;fill-rule:nonzero;stroke:none"
                 id="path4405"
                 inkscape:connector-curvature="0" /></g></g></g><g
           id="g4411"><g
             id="g4413" /><g
             id="g4423"><g
               clip-path="url(#clipPath4417)"
               id="g4421"
               style="opacity:0.5"><path
                 d="M 500,471.321 H 200 v 15 h 300 z"
                 style="fill:#ff00ff;fill-opacity:1;fill-rule:nonzero;stroke:none"
                 id="path4419"
                 inkscape:connector-curvature="0" /></g></g></g></g></g></g></svg>