<svg id="Layer_1" data-name="Layer 1" xmlns="http://www.w3.org/2000/svg" viewBox="0 0 65 65"><defs><style>.cls-1{fill:#afc5d1;}.cls-2{fill:#43505a;fill-rule:evenodd;}</style></defs><title>Artboard 3</title><g id="Github"><circle id="back" class="cls-1" cx="32.5" cy="32.5" r="32.5"/><path class="cls-2" d="M32.5,14.75a18.2,18.2,0,0,0-5.75,35.47c.91.17,1.24-.39,1.24-.88s0-1.58,0-3.1c-5.06,1.1-6.13-2.44-6.13-2.44a4.82,4.82,0,0,0-2-2.66C18.16,40,19.94,40,19.94,40a3.82,3.82,0,0,1,2.79,1.88A3.88,3.88,0,0,0,28,43.43,3.89,3.89,0,0,1,29.18,41c-4-.46-8.29-2-8.29-9a7,7,0,0,1,1.87-4.88,6.55,6.55,0,0,1,.18-4.82s1.53-.49,5,1.87a17.25,17.25,0,0,1,9.11,0c3.47-2.36,5-1.87,5-1.87a6.54,6.54,0,0,1,.18,4.82A7,7,0,0,1,44.11,32c0,7-4.26,8.53-8.31,9A4.34,4.34,0,0,1,37,44.35c0,2.43,0,4.4,0,5s.33,1.05,1.25.88A18.2,18.2,0,0,0,32.5,14.75Z"/></g></svg>