<svg id="Layer_1" data-name="Layer 1" xmlns="http://www.w3.org/2000/svg" viewBox="0 0 65 65"><defs><style>.cls-1{fill:#afc5d1;}.cls-2{fill:#43505a;}</style></defs><title>Artboard 4</title><circle class="cls-1" cx="32.5" cy="32.5" r="32.5"/><path class="cls-2" d="M50.59,22.73l0,0h0l-11-5.49a1.15,1.15,0,0,0-.23-.08,1.22,1.22,0,0,0-.3,0,1.26,1.26,0,0,0-1.07.58L31.65,27.95l7.93,12.89,11-17.93A.13.13,0,0,0,50.59,22.73Z"/><polygon class="cls-2" points="28.17 25.61 28.17 37.3 38.57 42.5 28.17 25.61"/><path class="cls-2" d="M40.13,43.28l8.56,4.28c1.11.56,2,.17,2-.87V26.1Z"/><path class="cls-2" d="M26.37,22.75,15.64,17.39a1.23,1.23,0,0,0-.54-.14c-.47,0-.8.36-.8,1V41.37a2,2,0,0,0,1,1.63l9.45,4.72a1.54,1.54,0,0,0,.68.18c.59,0,1-.45,1-1.22V22.86A.12.12,0,0,0,26.37,22.75Z"/></svg>