<svg xmlns="http://www.w3.org/2000/svg" xmlns:xlink="http://www.w3.org/1999/xlink" version="1.1" x="0px" y="0px" viewBox="0 0 100 125" enable-background="new 0 0 100 100" xml:space="preserve"><path d="M94.049,49.09c0.035-0.472,0.072-0.943,0.072-1.423c0-0.107-0.014-0.21-0.016-0.317c0.069-1.103,0.027-2.213-0.151-3.315  c-0.016-0.098-0.046-0.19-0.064-0.287c0.059-1.429-0.124-2.843-0.584-4.209c-0.429-1.275-1.087-2.429-1.901-3.473  c-0.173-0.618-0.412-1.214-0.719-1.784c-0.526-0.979-1.245-1.822-2.092-2.556c-0.227-0.903-0.617-1.729-1.18-2.449  c-0.796-1.019-1.897-1.765-3.2-2.275c-0.26-0.897-0.698-1.678-1.35-2.272c-0.905-0.825-2.137-1.274-3.585-1.398  c-0.008-0.064-0.009-0.133-0.019-0.196c-0.191-1.217-0.722-2.116-1.576-2.671c-1.179-0.767-2.853-0.759-4.799-0.125  c-0.002-0.682-0.074-1.288-0.235-1.787c-0.245-0.76-0.672-1.281-1.269-1.547c-1.258-0.561-3.129,0.188-5.259,1.901  c0.112-1.525,0.007-2.689-0.337-3.369c-0.201-0.398-0.481-0.649-0.835-0.748c-1.764-0.5-4.606,3.486-7.213,8.744  c0.636-4.803,0.873-8.863,0.224-9.761c-0.145-0.2-0.316-0.261-0.435-0.277c-2.201-0.32-5.354,16.506-5.487,17.221  c-0.661,3.527-1.244,7.309-1.576,10.479c0.007-2.462,0.008-5.735,0.008-10.117c0-11.159,0-15.202-0.123-16.667  c0.005-0.215,0.011-0.347,0.016-0.393l-0.062-0.011c-0.069-0.429-0.167-0.429-0.305-0.429c-0.139,0-0.236,0-0.306,0.433  l-0.061,0.007c0.005,0.045,0.01,0.176,0.016,0.39c-0.124,1.462-0.124,5.504-0.124,16.67c0,4.405,0,7.688,0.008,10.154  c-0.332-3.168-0.914-6.948-1.574-10.471c-0.336-1.792-3.342-17.54-5.488-17.22c-0.119,0.016-0.29,0.077-0.435,0.276  c-0.649,0.897-0.412,4.951,0.222,9.749c-2.6-5.251-5.432-9.23-7.212-8.731c-0.353,0.099-0.633,0.35-0.835,0.748  c-0.344,0.679-0.448,1.842-0.337,3.364c-2.128-1.71-3.998-2.459-5.258-1.896c-0.596,0.267-1.023,0.788-1.269,1.548  c-0.161,0.499-0.232,1.106-0.234,1.788c-1.946-0.634-3.62-0.642-4.799,0.125c-0.854,0.555-1.384,1.454-1.576,2.671  c-0.01,0.062-0.011,0.131-0.019,0.195c-1.448,0.124-2.681,0.573-3.586,1.399c-0.651,0.595-1.09,1.375-1.35,2.272  c-1.303,0.51-2.403,1.256-3.199,2.275c-0.563,0.72-0.953,1.546-1.18,2.45c-0.846,0.734-1.565,1.577-2.092,2.556  c-0.306,0.57-0.545,1.165-0.718,1.782c-0.815,1.045-1.472,2.199-1.902,3.475c-0.46,1.366-0.643,2.781-0.584,4.211  c-0.018,0.097-0.048,0.189-0.063,0.286c-0.177,1.099-0.219,2.207-0.152,3.308c-0.002,0.109-0.016,0.214-0.016,0.324  c0,0.505,0.037,1.001,0.076,1.497c-0.264,1.609-0.291,3.268-0.026,4.942c0.189,1.193,0.518,2.341,0.964,3.44  c0.092,0.837,0.248,1.667,0.512,2.477c0.394,1.212,0.971,2.325,1.692,3.337c0.168,0.854,0.441,1.683,0.843,2.471  c0.695,1.365,1.703,2.502,2.94,3.413c0.228,0.674,0.534,1.311,0.954,1.889c0.921,1.268,2.242,2.152,3.826,2.689  c0.259,0.643,0.625,1.211,1.103,1.689c0.96,0.959,2.294,1.445,3.857,1.543c0.245,1.042,0.717,1.857,1.438,2.381  c0.624,0.453,1.383,0.67,2.248,0.67c0.629,0,1.318-0.128,2.045-0.349c0.154,1.174,0.573,2.127,1.426,2.562  c0.3,0.152,0.625,0.226,0.975,0.226c1.207,0,2.691-0.886,4.284-2.355c-0.057,2.297,0.338,3.61,1.195,3.888  c0.103,0.033,0.208,0.05,0.318,0.05c1.604,0,3.895-3.524,6.111-8.361c-0.531,5.14-0.765,10.209,0.354,10.386  c0.045,0.008,0.093,0.015,0.146,0.015c0.429,0,1.13-0.514,2.528-6.035c0.96-3.793,1.963-8.876,2.825-14.312  c0.123-0.778,0.589-3.78,1.023-7.281c-0.004,2.169-0.006,4.494-0.006,6.929c0,5.696,0.011,10.853,0.029,14.586  c0.017,3.377,0.024,4.976,0.088,5.733c-0.003,0.129-0.007,0.212-0.011,0.244l0.038,0.007c0.062,0.43,0.162,0.43,0.33,0.43  c0.169,0,0.269,0,0.33-0.432l0.038-0.005c-0.003-0.032-0.007-0.115-0.011-0.244c0.064-0.758,0.072-2.356,0.088-5.733  c0.018-3.733,0.029-8.89,0.029-14.586c0-2.441-0.002-4.773-0.006-6.946c0.433,3.489,0.897,6.477,1.02,7.253  c0.861,5.438,1.864,10.521,2.824,14.312c1.398,5.522,2.1,6.035,2.528,6.035c0.053,0,0.101-0.007,0.146-0.015  c1.118-0.177,0.885-5.246,0.354-10.387c2.216,4.837,4.507,8.362,6.111,8.361c0.109,0,0.216-0.017,0.318-0.05  c0.881-0.286,1.228-1.736,1.179-3.903c1.599,1.478,3.089,2.369,4.299,2.369c0.35,0,0.676-0.073,0.975-0.226  c0.853-0.434,1.272-1.386,1.426-2.559c0.738,0.227,1.426,0.344,2.052,0.344c0.871,0,1.626-0.221,2.242-0.668  c0.731-0.531,1.198-1.352,1.441-2.382c1.562-0.099,2.896-0.585,3.855-1.543c0.473-0.473,0.841-1.033,1.106-1.67  c1.603-0.55,2.909-1.453,3.821-2.708c0.42-0.578,0.733-1.217,0.966-1.897c1.241-0.923,2.241-2.058,2.927-3.404  c0.406-0.796,0.691-1.638,0.863-2.513c0.711-1.012,1.287-2.108,1.673-3.295c0.263-0.81,0.414-1.635,0.504-2.462  c0.45-1.103,0.781-2.258,0.971-3.456C94.338,52.424,94.323,50.739,94.049,49.09z M92.371,57.352  c-0.372,0.898-0.825,1.761-1.368,2.576c-0.059-0.472-0.147-0.948-0.264-1.429c0.649-0.94,1.208-1.944,1.682-2.995  C92.458,56.121,92.432,56.737,92.371,57.352z M87.532,65.747c-0.026-0.35-0.07-0.706-0.131-1.068  c1.094-0.792,2.077-1.676,2.927-2.65c-0.023,0.336-0.059,0.669-0.117,0.995C89.476,64.039,88.585,64.956,87.532,65.747z   M82.836,70.483c-0.027-0.484-0.098-0.993-0.194-1.516c0.377-0.112,0.755-0.218,1.122-0.352c1.088-0.398,2.096-0.885,3.02-1.449  c-0.043,0.553-0.121,1.089-0.271,1.589C85.465,69.501,84.231,70.083,82.836,70.483z M76.743,76.372  c-1.59-0.001-3.43-0.432-5.396-1.247c-0.016-0.085-0.032-0.172-0.049-0.256c-0.122-0.611-0.278-1.25-0.448-1.902  c1.925,0.717,3.841,1.202,5.68,1.396c0.082,0.009,0.157,0.005,0.238,0.013C76.833,75.108,76.826,75.776,76.743,76.372z   M70.966,78.698c-0.857-0.352-1.774-0.833-2.748-1.473c-1.33-0.875-2.694-1.977-4.051-3.249c-0.17-0.873-0.364-1.775-0.58-2.699  c2.371,1.885,4.789,3.35,7.08,4.339C70.875,76.791,70.977,77.83,70.966,78.698z M56.092,66.134c-0.07-0.46-0.124-0.804-0.156-1.006  c0.548,0.855,1.12,1.708,1.734,2.553c1.827,2.514,3.807,4.775,5.81,6.674c0.277,1.462,0.47,2.765,0.589,3.901  c-2.416-2.627-5.186-6.632-7.801-11.765C56.207,66.372,56.152,66.253,56.092,66.134z M43.729,66.536  c-2.62,5.141-5.397,9.15-7.817,11.777c0.032-0.306,0.068-0.621,0.112-0.959c0.121-0.916,0.283-1.897,0.48-2.926  c1.962-1.864,3.945-4.119,5.822-6.702c0.614-0.845,1.186-1.699,1.734-2.554c-0.032,0.203-0.086,0.547-0.156,1.008  C43.845,66.299,43.79,66.417,43.729,66.536z M29.329,75.661c2.289-0.989,4.705-2.452,7.074-4.334  c-0.216,0.92-0.412,1.818-0.581,2.679c-2.403,2.245-4.764,3.885-6.792,4.732C29.02,77.87,29.123,76.833,29.329,75.661z   M23.222,74.405c1.874-0.171,3.878-0.639,5.927-1.398c-0.171,0.653-0.327,1.294-0.45,1.906c-0.017,0.084-0.032,0.171-0.049,0.256  c-1.967,0.816-3.806,1.247-5.397,1.248C23.168,75.822,23.158,75.148,23.222,74.405z M13.488,68.799  c-0.153-0.51-0.236-1.05-0.278-1.607c1.263,0.773,2.67,1.382,4.176,1.826c-0.095,0.521-0.167,1.031-0.196,1.518  C15.806,70.14,14.558,69.559,13.488,68.799z M9.78,63.053c-0.056-0.318-0.08-0.644-0.103-0.969c0.854,0.976,1.84,1.862,2.938,2.655  c-0.06,0.36-0.103,0.714-0.129,1.064C11.433,65.015,10.53,64.088,9.78,63.053z M7.618,57.382c-0.061-0.613-0.089-1.229-0.053-1.851  c0.479,1.064,1.046,2.079,1.703,3.03c-0.117,0.48-0.204,0.957-0.264,1.432C8.454,59.168,7.994,58.293,7.618,57.382z M11.139,34.573  c-0.72,0.759-1.39,1.566-1.979,2.435c0.036-0.195,0.078-0.389,0.128-0.58C9.83,35.752,10.451,35.134,11.139,34.573z M12.076,32.154  c0.995-0.821,2.193-1.467,3.542-1.932c0.036,0.25,0.082,0.503,0.137,0.76c-0.377,0.209-0.742,0.437-1.102,0.67  c-0.962,0.398-1.865,0.869-2.701,1.412C11.975,32.753,12.012,32.447,12.076,32.154z M16.258,28.875c0-0.461,0.057-0.881,0.142-1.281  c1.341-0.47,2.907-0.674,4.628-0.609c0.128,0.526,0.287,1.068,0.48,1.629c-1.865-0.014-3.629,0.204-5.231,0.648  C16.271,29.133,16.258,29.001,16.258,28.875z M21.412,24.049c1.911-0.039,4.201,0.51,6.642,1.562  c0.235,0.76,0.512,1.553,0.828,2.371c-2.51-0.967-4.975-1.527-7.24-1.681C21.473,25.486,21.392,24.729,21.412,24.049z   M44.252,31.255c-0.154-0.822-0.293-1.608-0.426-2.378c0.266,0.655,0.531,1.324,0.793,2.015c1.152,3.051,2.001,5.815,2.588,8.198  c-0.655-1.829-1.516-3.801-2.566-5.836C44.511,32.606,44.381,31.942,44.252,31.255z M83.738,28.831c0,0.126-0.013,0.258-0.019,0.387  c-1.602-0.443-3.366-0.661-5.231-0.647c0.192-0.557,0.35-1.096,0.478-1.619c0.211-0.008,0.431-0.031,0.638-0.031  c1.472,0,2.817,0.21,3.99,0.62C83.68,27.942,83.738,28.366,83.738,28.831z M90.706,36.369c0.052,0.196,0.094,0.394,0.132,0.594  c-0.61-0.9-1.305-1.736-2.055-2.518v0C89.502,35.023,90.143,35.669,90.706,36.369z M38.187,32.621  c-0.032-0.084-0.06-0.165-0.091-0.249c3.451,3.243,6.054,6.873,7.347,10.121c-0.067,0.022-0.137,0.043-0.202,0.067  c-1.185-2.943-3.489-5.982-6.55-8.651C38.521,33.484,38.352,33.06,38.187,32.621z M92.956,45.402c-0.482-1.127-1.1-2.214-1.84-3.253  c0.014-0.042,0.032-0.084,0.046-0.126c0.229-0.705,0.389-1.402,0.482-2.086c0.672,1.442,1.162,2.982,1.441,4.597  C93.051,44.823,93.011,45.112,92.956,45.402z M91.431,49.465c-0.623-1.178-1.412-2.306-2.329-3.373  c0.695-1.008,1.27-2.047,1.702-3.103c0.788,1.176,1.39,2.419,1.838,3.698c-0.233,0.77-0.543,1.538-0.931,2.301  C91.628,49.151,91.52,49.304,91.431,49.465z M51.3,51.629c-0.098-1.294,0.025-2.381,0.384-3.189c0.033,0.109,0.067,0.227,0.1,0.342  C51.441,49.612,51.293,50.577,51.3,51.629z M48.212,48.827c0.034-0.115,0.068-0.234,0.101-0.343  c0.359,0.809,0.482,1.897,0.383,3.194C48.703,50.624,48.556,49.658,48.212,48.827z M43.529,58.826  c-1.078,1.962-2.578,3.804-4.395,5.448c0.063-0.2,0.124-0.398,0.188-0.598c3.848-3.536,6.029-8.134,5.742-12.644  c0.04-0.029,0.082-0.057,0.121-0.087C45.582,53.382,45.031,56.094,43.529,58.826z M25,66.087c-1.977,0-3.878-0.323-5.664-0.903  c0.267-0.605,0.58-1.222,0.916-1.845c0.711,0.186,1.433,0.343,2.168,0.457c1.139,0.178,2.268,0.263,3.379,0.263  c0.087,0,0.171-0.009,0.257-0.01c-0.372,0.684-0.719,1.364-1.04,2.038C25.011,66.086,25.006,66.087,25,66.087z M8.286,49.033  C7.9,48.276,7.593,47.513,7.36,46.748c0.454-1.297,1.061-2.544,1.837-3.705c0.43,1.049,1.001,2.082,1.691,3.083  c-0.497,0.578-0.971,1.172-1.392,1.798c-0.348,0.517-0.657,1.042-0.938,1.572C8.471,49.34,8.366,49.192,8.286,49.033z M9.019,38.676  c0.209-0.368,0.426-0.732,0.659-1.083c0.519-0.669,1.102-1.29,1.728-1.875c0.196,0.914,0.512,1.849,0.941,2.791  c-1.086,0.887-2.059,1.874-2.905,2.943C9.169,40.503,9.027,39.574,9.019,38.676z M90.558,41.396  c-0.062-0.079-0.114-0.162-0.178-0.24c-0.814-0.994-1.73-1.895-2.724-2.707c0.426-0.937,0.74-1.867,0.935-2.776  c0.625,0.583,1.207,1.204,1.725,1.872c0.234,0.353,0.452,0.718,0.662,1.088C90.969,39.526,90.829,40.451,90.558,41.396z   M40.3,48.839c0.739-0.478,1.455-0.881,2.136-1.197c0.209,0.155,0.413,0.292,0.616,0.426c-0.462,0.427-0.905,0.875-1.316,1.318  C41.275,49.243,40.796,49.061,40.3,48.839z M42.889,46.32c0.027,0.092,0.065,0.181,0.091,0.274  c-0.152,0.056-0.304,0.112-0.459,0.177c-0.18-0.141-0.359-0.281-0.544-0.438c0.228-0.016,0.455-0.03,0.673-0.03  C42.733,46.303,42.807,46.318,42.889,46.32z M40.177,44.638c-0.204-0.211-0.413-0.439-0.621-0.666  c0.54,0.241,1.044,0.518,1.517,0.822C40.783,44.729,40.482,44.682,40.177,44.638z M41.545,45.68c-0.09,0.01-0.179,0.018-0.269,0.03  c-0.048-0.045-0.096-0.085-0.144-0.131C41.269,45.613,41.411,45.641,41.545,45.68z M40.359,45.862  c-1.089,0.217-2.238,0.57-3.429,1.06c-0.617-0.421-1.245-0.892-1.877-1.393c0.461-0.082,0.921-0.155,1.373-0.202  c0.606-0.064,1.191-0.096,1.755-0.096c0.574,0,1.117,0.044,1.644,0.109C40.005,45.522,40.182,45.691,40.359,45.862z M40.982,46.446  c0.263,0.237,0.524,0.464,0.78,0.673c-0.734,0.359-1.496,0.802-2.28,1.33c-0.591-0.302-1.203-0.661-1.826-1.057  C38.821,46.937,39.94,46.614,40.982,46.446z M43.317,48.852c-0.018,0.289-0.026,0.58-0.057,0.865  c-0.228-0.025-0.458-0.054-0.701-0.106C42.817,49.341,43.07,49.089,43.317,48.852z M47.616,47.513  c-0.016,0.039-0.03,0.079-0.047,0.116c0.01-0.044,0.023-0.086,0.032-0.131C47.606,47.502,47.611,47.508,47.616,47.513z   M42.997,44.368c-0.003,0.013-0.003,0.026-0.006,0.039c-0.026-0.06-0.056-0.119-0.082-0.179  C42.938,44.274,42.967,44.321,42.997,44.368z M41.359,44.076c-0.857-0.536-1.819-0.973-2.867-1.313  c-0.519-0.615-1.044-1.278-1.573-1.983C38.65,41.615,40.158,42.726,41.359,44.076z M36.055,39.6  c-0.714-1.009-1.429-2.097-2.137-3.255c0.772,0.356,1.522,0.76,2.239,1.22c2.319,1.489,4.141,3.422,5.4,5.639  C40.071,41.662,38.197,40.443,36.055,39.6z M37.238,42.415c-0.566-0.132-1.15-0.242-1.759-0.319  c-1.379-0.175-2.817-0.182-4.279-0.062c-0.931-0.955-1.848-1.972-2.73-3.055c0.046,0,0.093-0.006,0.138-0.006  c2.488,0,4.852,0.434,6.963,1.233C36.125,40.981,36.682,41.722,37.238,42.415z M32.995,42.693c0.811,0,1.61,0.049,2.389,0.147  c0.953,0.12,1.844,0.322,2.683,0.581c0.326,0.383,0.651,0.748,0.974,1.099c-0.852-0.049-1.746-0.039-2.693,0.06  c-0.674,0.071-1.36,0.192-2.051,0.336c-0.804-0.672-1.609-1.402-2.409-2.186C32.259,42.71,32.629,42.693,32.995,42.693z   M33.349,45.131c-1.468,0.371-2.959,0.902-4.444,1.571c-1.16-0.811-2.312-1.717-3.438-2.708c1.812-0.61,3.635-1.007,5.42-1.184  C31.705,43.643,32.528,44.417,33.349,45.131z M34.064,45.737c0.682,0.564,1.358,1.081,2.027,1.553  c-1.076,0.491-2.174,1.085-3.283,1.776c-1.05-0.541-2.114-1.163-3.179-1.871C31.117,46.555,32.604,46.068,34.064,45.737z   M36.774,47.758c0.675,0.448,1.337,0.846,1.983,1.191c-0.706,0.512-1.426,1.096-2.152,1.728c-0.983-0.318-2.001-0.727-3.043-1.226  C34.652,48.786,35.728,48.219,36.774,47.758z M39.541,49.349c0.563,0.268,1.109,0.489,1.637,0.667  c-0.387,0.44-0.774,0.904-1.164,1.394c-0.796-0.074-1.641-0.233-2.524-0.473C38.185,50.351,38.871,49.82,39.541,49.349z   M41.971,50.248c0.405,0.104,0.799,0.181,1.174,0.223c-0.027,0.176-0.049,0.354-0.081,0.529c-0.025,0.073-0.061,0.139-0.087,0.211  c-0.617,0.166-1.298,0.246-2.036,0.242C41.286,51.03,41.629,50.628,41.971,50.248z M41.069,52.177c0.53,0,1.027-0.052,1.504-0.133  c-0.845,0.542-1.854,0.915-2.974,1.145c0.261-0.355,0.521-0.704,0.782-1.038C40.613,52.164,40.845,52.177,41.069,52.177z   M43.743,43.341c-0.205-0.702-0.454-1.394-0.759-2.072c-0.029-0.08-0.058-0.16-0.088-0.239c0.413,0.712,0.759,1.436,1.036,2.167  C43.865,43.243,43.805,43.292,43.743,43.341z M39.742,38.263c0.502,1.085,1.017,2.136,1.538,3.123  c-1.235-1.715-2.813-3.23-4.718-4.453c-1.045-0.671-2.154-1.234-3.307-1.691c-0.022-0.038-0.045-0.073-0.067-0.112  c-0.457-0.786-0.886-1.571-1.292-2.35C35.028,34.085,37.713,35.98,39.742,38.263z M32.179,34.868  c-2.318-0.767-4.792-1.111-7.315-1.011c-0.602-1.003-1.133-1.992-1.588-2.951c2.115,0.065,4.301,0.408,6.482,1.092  c0.376,0.118,0.734,0.264,1.1,0.398C31.268,33.211,31.709,34.036,32.179,34.868z M25.715,34.571c2.441,0,4.822,0.44,7.033,1.283  c0.687,1.166,1.393,2.275,2.109,3.326c-2.146-0.678-4.502-1-6.96-0.925c-0.952-1.218-1.822-2.449-2.589-3.668  C25.443,34.585,25.58,34.571,25.715,34.571z M26.966,38.286c-1.896,0.135-3.837,0.505-5.771,1.133  c-0.035,0.011-0.069,0.027-0.104,0.038c-0.974-1.206-1.826-2.423-2.527-3.622c1.224-0.446,2.51-0.791,3.855-1.004  c0.675-0.107,1.349-0.17,2.021-0.211C25.187,35.833,26.03,37.062,26.966,38.286z M27.541,39.016c0.101,0.127,0.197,0.254,0.299,0.38  c0.78,0.961,1.58,1.867,2.388,2.724c-1.789,0.224-3.609,0.661-5.412,1.299c-1.17-1.076-2.243-2.198-3.209-3.338  C23.602,39.451,25.599,39.11,27.541,39.016z M24.649,44.279c1.131,1.016,2.293,1.944,3.467,2.78  c-1.397,0.677-2.778,1.489-4.125,2.404c-0.584-0.345-1.166-0.708-1.741-1.097c-0.833-0.563-1.623-1.158-2.376-1.773  c0.586-0.355,1.189-0.697,1.815-1.016C22.663,45.08,23.653,44.65,24.649,44.279z M28.828,47.559  c1.085,0.736,2.175,1.392,3.253,1.961c-1.049,0.692-2.1,1.472-3.14,2.328c-1.401-0.529-2.817-1.195-4.221-1.978  C26.065,48.979,27.442,48.207,28.828,47.559z M32.838,49.902c1.071,0.528,2.125,0.968,3.148,1.317  c-0.67,0.611-1.344,1.281-2.017,1.985c-1.355-0.215-2.766-0.573-4.206-1.067C30.785,51.31,31.815,50.564,32.838,49.902z   M36.853,51.493c0.918,0.27,1.804,0.463,2.646,0.572c-0.317,0.415-0.633,0.843-0.95,1.287c-1.13,0.129-2.349,0.129-3.641-0.015  C35.558,52.679,36.208,52.064,36.853,51.493z M36.902,54.177c0.378,0,0.746-0.017,1.109-0.042c-0.352,0.514-0.702,1.044-1.049,1.589  c-1.451,0.374-3.039,0.559-4.717,0.547c0.672-0.807,1.354-1.576,2.04-2.298C35.183,54.095,36.064,54.177,36.902,54.177z   M38.994,54.027c1.047-0.146,2.011-0.41,2.875-0.789c-1.046,0.929-2.334,1.65-3.806,2.156  C38.372,54.925,38.683,54.471,38.994,54.027z M40.57,55.086c-1.148,1.223-2.565,2.24-4.189,3.018  c0.349-0.595,0.703-1.174,1.059-1.739C38.575,56.05,39.626,55.623,40.57,55.086z M41.334,55.373  c-1.593,2.491-3.914,4.523-6.701,5.903c0.367-0.706,0.741-1.397,1.122-2.074C37.963,58.301,39.872,57.004,41.334,55.373z   M48.743,47.549c0.02,0.05,0.037,0.105,0.055,0.158c-0.026-0.033-0.05-0.056-0.078-0.098C48.727,47.588,48.736,47.571,48.743,47.549  z M64.595,40.082c2.163-0.792,4.516-1.172,6.937-1.154c-0.888,1.09-1.81,2.114-2.747,3.074c-2.142-0.174-4.19-0.048-6.043,0.388  c0.564-0.703,1.129-1.453,1.691-2.24C64.489,40.129,64.539,40.102,64.595,40.082z M57.02,46.558c0.026-0.093,0.06-0.181,0.087-0.273  c0.073-0.002,0.138-0.016,0.213-0.016c0.218,0,0.449,0.02,0.677,0.036c-0.182,0.154-0.356,0.289-0.532,0.427  C57.315,46.67,57.167,46.613,57.02,46.558z M58.532,45.612c0.107-0.03,0.222-0.05,0.332-0.077c-0.038,0.035-0.074,0.067-0.111,0.102  C58.678,45.626,58.605,45.62,58.532,45.612z M58.949,44.742c0.472-0.302,0.964-0.583,1.496-0.82c-0.21,0.228-0.42,0.459-0.626,0.671  C59.523,44.635,59.229,44.68,58.949,44.742z M52.396,47.453c0.009,0.043,0.021,0.082,0.03,0.124c-0.016-0.035-0.03-0.073-0.045-0.11  C52.386,47.463,52.391,47.458,52.396,47.453z M56.678,48.791c0.254,0.241,0.512,0.497,0.777,0.773  c-0.249,0.054-0.485,0.083-0.719,0.109C56.704,49.382,56.696,49.086,56.678,48.791z M56.937,48.028  c0.209-0.138,0.419-0.28,0.635-0.44c0.679,0.312,1.399,0.714,2.146,1.197c-0.509,0.228-1,0.414-1.47,0.56  C57.804,48.867,57.366,48.426,56.937,48.028z M60.277,48.251c-0.713-0.469-1.394-0.846-2.052-1.17  c0.251-0.205,0.506-0.427,0.764-0.658c0.87,0.14,1.796,0.372,2.783,0.722c0.181,0.064,0.365,0.147,0.546,0.217  c-0.619,0.393-1.227,0.749-1.814,1.049C60.428,48.36,60.352,48.301,60.277,48.251z M62.022,46.438  c-0.823-0.292-1.604-0.496-2.358-0.648c0.168-0.162,0.336-0.322,0.506-0.495c0.527-0.065,1.07-0.109,1.644-0.109  c0.563,0,1.149,0.031,1.755,0.095c0.453,0.048,0.913,0.12,1.374,0.202c-0.625,0.495-1.245,0.961-1.856,1.378  C62.732,46.714,62.375,46.564,62.022,46.438z M63.648,44.535c-0.948-0.1-1.841-0.11-2.693-0.06c0.324-0.351,0.65-0.719,0.977-1.102  c1.85-0.572,3.947-0.805,6.173-0.684c-0.798,0.783-1.603,1.511-2.405,2.183C65.009,44.727,64.322,44.606,63.648,44.535z   M61.486,42.738c-1.051,0.343-2.02,0.795-2.896,1.347c1.192-1.36,2.701-2.507,4.502-3.37C62.552,41.435,62.016,42.111,61.486,42.738  z M63.95,39.541c-2.173,0.853-4.018,2.059-5.467,3.551c1.695-2.935,4.358-5.277,7.578-6.764  C65.362,37.47,64.656,38.544,63.95,39.541z M57.002,44.378c-0.003-0.013-0.009-0.026-0.013-0.039  c0.041-0.065,0.082-0.131,0.124-0.197C57.077,44.221,57.036,44.298,57.002,44.378z M57.02,51.167  c-0.026-0.073-0.063-0.14-0.088-0.214c-0.032-0.174-0.054-0.352-0.081-0.528c0.379-0.042,0.776-0.121,1.185-0.226  c0.341,0.379,0.686,0.777,1.039,1.209C58.331,51.415,57.643,51.335,57.02,51.167z M59.624,52.103  c0.261,0.334,0.523,0.682,0.789,1.043c-1.127-0.229-2.141-0.604-2.99-1.149c0.477,0.081,0.974,0.133,1.504,0.133  C59.154,52.131,59.389,52.118,59.624,52.103z M58.81,49.972c0.533-0.179,1.084-0.403,1.653-0.673  c0.683,0.479,1.371,1.003,2.064,1.588c-0.895,0.245-1.75,0.407-2.555,0.481C59.583,50.877,59.195,50.413,58.81,49.972z   M61.219,48.913c0.65-0.345,1.316-0.745,1.995-1.196c1.061,0.464,2.138,1.037,3.215,1.692c-1.044,0.5-2.065,0.909-3.05,1.228  C62.656,50.009,61.935,49.431,61.219,48.913z M63.928,47.228c0.661-0.468,1.33-0.979,2.003-1.536  c1.46,0.331,2.948,0.817,4.436,1.459c-1.06,0.704-2.118,1.324-3.162,1.863C66.109,48.326,65.013,47.727,63.928,47.228z   M66.647,45.086c0.819-0.712,1.641-1.484,2.456-2.315c1.763,0.176,3.589,0.563,5.425,1.179c-1.125,0.991-2.276,1.897-3.436,2.707  C69.606,45.988,68.115,45.457,66.647,45.086z M69.753,42.091c0.813-0.862,1.618-1.773,2.403-2.74  c0.104-0.128,0.201-0.257,0.303-0.385c1.965,0.097,3.961,0.447,5.93,1.07c-0.967,1.141-2.043,2.265-3.215,3.343  C73.348,42.736,71.525,42.309,69.753,42.091z M78.802,39.374c-1.912-0.621-3.853-0.995-5.77-1.135  c0.935-1.223,1.778-2.451,2.524-3.661c0.67,0.04,1.343,0.102,2.022,0.209c1.334,0.211,2.621,0.555,3.855,1.002  c-0.702,1.199-1.554,2.417-2.528,3.623C78.87,39.401,78.837,39.386,78.802,39.374z M72.107,38.202  c-2.413-0.078-4.765,0.229-6.958,0.922c0.708-1.04,1.406-2.137,2.086-3.289c2.187-0.836,4.58-1.305,7.079-1.305  c0.124,0,0.25,0.012,0.375,0.015C73.923,35.759,73.056,36.987,72.107,38.202z M67.809,34.839c0.473-0.837,0.917-1.668,1.331-2.489  c0.366-0.134,0.723-0.28,1.099-0.398c2.18-0.684,4.367-1.027,6.482-1.092c-0.456,0.961-0.987,1.95-1.589,2.954  C72.568,33.717,70.092,34.081,67.809,34.839z M66.81,35.084c-0.028,0.047-0.056,0.091-0.083,0.138  c-3.286,1.306-6.087,3.448-8.043,6.179c0.532-1.004,1.058-2.075,1.57-3.183c2.029-2.284,4.714-4.179,7.848-5.485  C67.696,33.513,67.266,34.298,66.81,35.084z M57.009,41.232c-0.308,0.687-0.56,1.389-0.766,2.1  c-0.062-0.048-0.123-0.097-0.192-0.143c0.279-0.743,0.629-1.479,1.048-2.202C57.068,41.068,57.038,41.15,57.009,41.232z   M51.267,47.54c0.003,0.009,0.006,0.016,0.009,0.024c-0.028,0.042-0.052,0.064-0.077,0.097c0.014-0.04,0.027-0.082,0.042-0.12  C51.25,47.541,51.259,47.541,51.267,47.54z M64.246,59.159c0.374,0.668,0.747,1.356,1.117,2.069  c-2.784-1.379-5.104-3.409-6.697-5.897C60.129,56.962,62.038,58.258,64.246,59.159z M59.425,55.04  c0.946,0.539,2.001,0.967,3.14,1.282c0.352,0.561,0.705,1.139,1.058,1.741C61.995,57.285,60.575,56.266,59.425,55.04z   M58.129,53.194c0.868,0.381,1.837,0.644,2.89,0.79c0.308,0.439,0.618,0.896,0.929,1.37C60.471,54.849,59.178,54.126,58.129,53.194z   M61.973,54.089c0.367,0.026,0.739,0.043,1.121,0.043c0.839,0,1.722-0.082,2.621-0.205c0.687,0.727,1.365,1.493,2.032,2.298  c-1.68,0.011-3.271-0.174-4.723-0.549C62.678,55.134,62.327,54.605,61.973,54.089z M61.424,53.304  c-0.314-0.44-0.629-0.869-0.944-1.283c0.852-0.109,1.75-0.304,2.681-0.579c0.65,0.577,1.3,1.189,1.945,1.846  C63.799,53.436,62.565,53.436,61.424,53.304z M63.996,51.178c1.023-0.348,2.078-0.787,3.15-1.315  c1.034,0.667,2.063,1.411,3.078,2.231c-1.439,0.493-2.851,0.851-4.205,1.065C65.348,52.46,64.674,51.794,63.996,51.178z   M67.925,49.469c1.075-0.568,2.161-1.222,3.243-1.955c1.386,0.648,2.763,1.42,4.107,2.311c-1.401,0.781-2.815,1.446-4.213,1.974  C70.031,50.947,68.981,50.169,67.925,49.469z M71.88,47.013c1.17-0.834,2.329-1.758,3.457-2.771  c0.994,0.369,1.987,0.788,2.971,1.289c0.624,0.318,1.226,0.66,1.815,1.016c-0.753,0.615-1.544,1.21-2.376,1.773  c-0.575,0.388-1.157,0.751-1.741,1.096C74.657,48.502,73.277,47.69,71.88,47.013z M78.647,44.864  c-0.893-0.455-1.794-0.838-2.696-1.186c1.172-1.097,2.247-2.228,3.207-3.373c1.774,0.628,3.414,1.436,4.893,2.392  c-0.965,1.156-2.08,2.284-3.322,3.351C80.055,45.631,79.366,45.23,78.647,44.864z M79.657,39.69  c0.964-1.206,1.805-2.419,2.498-3.616c1.65,0.669,3.182,1.544,4.564,2.605c-0.572,1.146-1.311,2.299-2.198,3.431  C83.046,41.149,81.416,40.334,79.657,39.69z M82.522,35.414c0.532-0.989,0.964-1.962,1.285-2.904  c1.515,0.687,2.906,1.558,4.134,2.591c-0.161,0.939-0.467,1.907-0.897,2.885C85.666,36.946,84.15,36.082,82.522,35.414z   M81.804,35.13c-1.314-0.485-2.685-0.858-4.109-1.084c-0.571-0.09-1.138-0.147-1.703-0.191c0.601-1.022,1.124-2.026,1.572-3.001  c1.952,0.19,3.822,0.649,5.548,1.349C82.792,33.146,82.349,34.128,81.804,35.13z M22.433,30.899c0.447,0.974,0.97,1.977,1.57,2.998  c-0.566,0.045-1.133,0.104-1.701,0.194c-1.436,0.227-2.805,0.603-4.108,1.086c-0.545-1.002-0.988-1.985-1.309-2.929  C18.611,31.548,20.481,31.089,22.433,30.899z M17.478,35.465c-1.645,0.679-3.16,1.548-4.521,2.574  c-0.432-0.981-0.74-1.952-0.902-2.894c1.227-1.033,2.618-1.904,4.134-2.591C16.511,33.499,16.944,34.474,17.478,35.465z   M17.845,36.125c0.693,1.194,1.532,2.406,2.494,3.609c-1.742,0.636-3.375,1.448-4.867,2.417c-0.884-1.128-1.62-2.276-2.19-3.418  C14.647,37.687,16.177,36.805,17.845,36.125z M20.838,40.349c0.959,1.144,2.033,2.275,3.204,3.372  c-0.906,0.351-1.808,0.737-2.695,1.188c-0.722,0.368-1.41,0.768-2.08,1.183c-1.244-1.068-2.359-2.197-3.325-3.354  C17.44,41.773,19.083,40.969,20.838,40.349z M18.617,46.514c-1.373,0.904-2.631,1.893-3.744,2.955  c-1.161-1.031-2.182-2.134-3.031-3.287c1.022-1.118,2.186-2.134,3.477-3.029C16.28,44.313,17.388,45.443,18.617,46.514z   M19.214,47.019c0.826,0.685,1.696,1.346,2.616,1.967c0.491,0.332,0.99,0.635,1.489,0.936c-0.081,0.058-0.164,0.109-0.244,0.167  c-1.206,0.876-2.316,1.812-3.34,2.781c-1.568-0.859-3.011-1.84-4.297-2.912C16.557,48.901,17.826,47.916,19.214,47.019z   M23.515,50.696c0.169-0.123,0.343-0.232,0.514-0.352c1.421,0.811,2.858,1.487,4.286,2.043c-0.765,0.658-1.525,1.345-2.266,2.086  c-0.241,0.241-0.464,0.488-0.696,0.732c-1.435-0.426-2.877-0.964-4.3-1.651c-0.211-0.102-0.416-0.21-0.623-0.317  C21.38,52.354,22.408,51.5,23.515,50.696z M26.579,55.005c0.828-0.828,1.674-1.597,2.527-2.319c1.445,0.516,2.874,0.914,4.251,1.16  c-0.694,0.754-1.383,1.563-2.065,2.407c-1.657-0.083-3.383-0.351-5.13-0.811C26.303,55.297,26.435,55.149,26.579,55.005z   M30.726,56.958c-0.384,0.492-0.765,0.992-1.141,1.51c-0.347,0.478-0.68,0.958-1.006,1.44c-1.873,0.057-3.817-0.113-5.78-0.545  c0.83-1.114,1.766-2.221,2.78-3.309C27.323,56.538,29.054,56.84,30.726,56.958z M30.191,58.909c0.478-0.659,0.969-1.29,1.465-1.908  c0.236,0.007,0.474,0.022,0.707,0.022c1.413,0,2.768-0.138,4.036-0.403c-0.393,0.64-0.78,1.3-1.162,1.974  c-1.747,0.684-3.674,1.122-5.714,1.272C29.744,59.547,29.96,59.227,30.191,58.909z M34.669,59.603  c-0.327,0.599-0.649,1.207-0.964,1.826c-0.058,0.114-0.111,0.227-0.168,0.341c-1.903,0.796-3.983,1.294-6.161,1.461  c0.501-0.86,1.033-1.723,1.607-2.583C30.989,60.552,32.907,60.196,34.669,59.603z M33.049,62.762  c-0.302,0.624-0.592,1.245-0.87,1.863c-1.952,0.832-4.082,1.313-6.309,1.418c0.328-0.671,0.677-1.347,1.056-2.029  C29.075,63.901,31.137,63.469,33.049,62.762z M34.086,62.353c2.279-0.992,4.302-2.385,5.941-4.098  c-1.74,2.472-4.071,4.489-6.788,5.859C33.51,63.528,33.792,62.941,34.086,62.353z M43.162,53.669  c-0.4,1.853-1.141,3.622-2.177,5.245c0.26-0.692,0.522-1.368,0.788-2.028C42.333,55.868,42.794,54.789,43.162,53.669z   M44.223,51.652c0.035-0.035,0.066-0.074,0.1-0.11c0.093,3.727-1.561,7.496-4.488,10.592c0.088-0.259,0.175-0.519,0.264-0.776  C42.474,58.583,43.965,55.218,44.223,51.652z M55.773,51.607c0.235,3.348,1.544,6.598,3.841,9.405  c0.093,0.114,0.2,0.216,0.295,0.327c0.084,0.242,0.167,0.5,0.251,0.748c-2.926-3.095-4.579-6.863-4.487-10.589  C55.707,51.534,55.738,51.572,55.773,51.607z M56.819,53.584c0.371,1.136,0.839,2.228,1.406,3.26c0.27,0.671,0.541,1.365,0.813,2.09  C57.952,57.253,57.212,55.447,56.819,53.584z M65.912,62.308c0.293,0.589,0.576,1.175,0.847,1.76  c-2.717-1.37-5.048-3.386-6.787-5.857C61.611,59.924,63.633,61.317,65.912,62.308z M66.948,62.717  c1.908,0.706,3.965,1.138,6.109,1.252c0.378,0.684,0.725,1.359,1.05,2.027c-2.22-0.107-4.343-0.588-6.289-1.417  C67.54,63.961,67.25,63.34,66.948,62.717z M66.458,61.722c-0.057-0.113-0.109-0.225-0.166-0.338  c-0.313-0.613-0.636-1.223-0.967-1.827c1.762,0.593,3.68,0.949,5.687,1.046c0.573,0.862,1.102,1.724,1.598,2.581  C70.435,63.015,68.359,62.517,66.458,61.722z M64.761,58.551c-0.383-0.671-0.774-1.332-1.173-1.978  c1.271,0.266,2.628,0.405,4.045,0.405c0.234,0,0.473-0.014,0.71-0.022c0.495,0.62,0.985,1.252,1.462,1.909  c0.231,0.318,0.447,0.638,0.668,0.957C68.434,59.672,66.507,59.234,64.761,58.551z M70.413,58.423  c-0.374-0.514-0.755-1.017-1.14-1.51c1.671-0.118,3.401-0.42,5.145-0.904c1.015,1.088,1.95,2.195,2.78,3.309  c-1.963,0.432-3.907,0.602-5.78,0.545C71.093,59.384,70.762,58.903,70.413,58.423z M68.702,56.207  c-0.678-0.837-1.368-1.645-2.069-2.406c1.378-0.246,2.808-0.643,4.255-1.16c0.859,0.726,1.707,1.496,2.529,2.318  c0.144,0.144,0.276,0.292,0.416,0.437C72.086,55.857,70.359,56.125,68.702,56.207z M73.948,54.429  c-0.737-0.737-1.496-1.426-2.263-2.088c1.427-0.556,2.862-1.232,4.282-2.042c0.17,0.119,0.344,0.229,0.513,0.351  c1.099,0.799,2.128,1.652,3.087,2.542c-0.207,0.106-0.412,0.215-0.623,0.317c-1.423,0.687-2.864,1.225-4.299,1.65  C74.413,54.915,74.188,54.669,73.948,54.429z M76.922,50.044c-0.08-0.058-0.163-0.109-0.244-0.167  c0.498-0.301,0.997-0.604,1.488-0.936c0.921-0.622,1.792-1.283,2.618-1.969c1.376,0.887,2.645,1.87,3.776,2.94  c-1.286,1.072-2.729,2.053-4.297,2.912C79.23,51.849,78.118,50.913,76.922,50.044z M81.382,46.467  c1.226-1.069,2.331-2.195,3.29-3.353c1.305,0.907,2.47,1.925,3.479,3.027c-0.847,1.15-1.865,2.25-3.023,3.279  C84.002,48.349,82.745,47.361,81.382,46.467z M85.139,42.529c0.872-1.118,1.605-2.257,2.184-3.393  c0.902,0.752,1.732,1.585,2.476,2.495c0.17,0.208,0.315,0.427,0.474,0.64c-0.406,1.102-0.973,2.189-1.682,3.242  C87.582,44.428,86.424,43.427,85.139,42.529z M12.68,39.194c0.577,1.129,1.305,2.261,2.17,3.372  c-1.273,0.887-2.428,1.887-3.45,2.986c-0.705-1.049-1.269-2.13-1.674-3.227C10.574,41.187,11.556,40.129,12.68,39.194z   M10.119,48.342c0.37-0.551,0.783-1.079,1.216-1.593c0.854,1.14,1.865,2.231,3.011,3.252c-1.077,1.092-2.023,2.238-2.799,3.424  c-0.981-0.971-1.826-2.026-2.532-3.147C9.337,49.625,9.692,48.977,10.119,48.342z M14.907,50.49c1.282,1.076,2.718,2.06,4.272,2.928  c-1.121,1.116-2.128,2.27-2.988,3.447c-1.512-0.838-2.886-1.819-4.091-2.923C12.871,52.748,13.815,51.59,14.907,50.49z   M19.863,53.791c0.285,0.149,0.571,0.298,0.863,0.439c1.337,0.646,2.693,1.168,4.044,1.587c-1.007,1.102-1.924,2.226-2.746,3.355  c-0.438-0.111-0.875-0.22-1.313-0.357c-1.362-0.427-2.655-0.964-3.871-1.589C17.707,56.055,18.726,54.903,19.863,53.791z   M20.487,59.53c0.361,0.113,0.721,0.199,1.082,0.295c-0.611,0.879-1.165,1.757-1.655,2.628c-1.775-0.514-3.454-1.244-4.984-2.179  c0.421-0.808,0.915-1.617,1.475-2.425C17.686,58.514,19.051,59.08,20.487,59.53z M22.325,60.031  c1.877,0.438,3.745,0.649,5.555,0.649c0.065,0,0.128-0.005,0.193-0.006c-0.569,0.872-1.109,1.746-1.604,2.616  c-1.289,0.041-2.604-0.029-3.934-0.235c-0.645-0.101-1.281-0.232-1.907-0.39C21.13,61.794,21.698,60.914,22.325,60.031z   M25.497,66.812c2.201-0.057,4.306-0.489,6.263-1.232c-0.124,0.287-0.246,0.574-0.364,0.859c-1.212,0.438-2.485,0.777-3.815,0.987  c-0.82,0.13-1.637,0.193-2.451,0.226C25.251,67.372,25.367,67.094,25.497,66.812z M32.748,65.181c2.806-1.25,5.256-3.15,7.157-5.516  c-0.157,0.431-0.312,0.868-0.465,1.309c-1.855,2.135-4.262,3.889-7.062,5.07C32.5,65.756,32.62,65.471,32.748,65.181z   M38.866,62.666c-0.062,0.189-0.127,0.374-0.189,0.564c-0.005,0.014-0.009,0.028-0.013,0.041c-1.908,1.715-4.232,3.157-6.874,4.19  c0.059-0.149,0.114-0.295,0.175-0.445C34.617,66.01,36.957,64.512,38.866,62.666z M46.779,49.287  c0.024-0.029,0.045-0.061,0.068-0.09c0.098-0.027,0.198-0.051,0.289-0.092c0.093-0.042,0.175-0.1,0.259-0.154  c-0.102,0.358-0.21,0.754-0.321,1.176C46.996,49.838,46.891,49.561,46.779,49.287z M52.86,49.061  c0.092,0.041,0.191,0.064,0.289,0.091c0.022,0.028,0.042,0.059,0.065,0.086c-0.108,0.262-0.212,0.526-0.291,0.804  c-0.104-0.39-0.209-0.77-0.315-1.131C52.691,48.963,52.77,49.02,52.86,49.061z M54.809,50.899c0.04,0.031,0.082,0.059,0.123,0.089  c-0.287,4.51,1.894,9.108,5.742,12.644c0.064,0.198,0.121,0.389,0.184,0.585C56.448,60.216,54.114,55.208,54.809,50.899z   M61.319,63.186c-0.058-0.179-0.118-0.358-0.177-0.537c1.949,1.881,4.292,3.346,6.892,4.328c0.06,0.148,0.114,0.293,0.173,0.441  c-2.643-1.033-4.967-2.475-6.875-4.19C61.328,63.213,61.324,63.199,61.319,63.186z M60.562,60.945  c-0.156-0.444-0.313-0.888-0.474-1.328c1.902,2.368,4.353,4.27,7.161,5.52c0.13,0.293,0.251,0.582,0.375,0.873  C64.883,64.86,62.47,63.138,60.562,60.945z M68.236,65.534c1.951,0.741,4.049,1.172,6.243,1.231  c0.131,0.284,0.246,0.562,0.366,0.842c-0.807-0.034-1.618-0.097-2.431-0.226c-1.319-0.209-2.592-0.547-3.814-0.986  C68.483,66.109,68.36,65.822,68.236,65.534z M74.989,66.041c-0.32-0.67-0.664-1.348-1.04-2.037c0.083,0.001,0.165,0.01,0.248,0.01  c1.111,0,2.242-0.085,3.38-0.263c0.735-0.114,1.457-0.271,2.168-0.457c0.336,0.622,0.649,1.239,0.916,1.844  c-1.786,0.581-3.687,0.903-5.665,0.903C74.994,66.041,74.991,66.041,74.989,66.041z M77.462,63.011  c-1.33,0.206-2.645,0.276-3.934,0.234c-0.492-0.863-1.028-1.737-1.602-2.615c0.064,0.001,0.126,0.006,0.19,0.006  c1.81,0,3.678-0.211,5.555-0.649c0.627,0.883,1.196,1.763,1.698,2.634C78.743,62.779,78.107,62.91,77.462,63.011z M78.44,59.777  c0.357-0.095,0.713-0.18,1.07-0.292c1.436-0.45,2.801-1.017,4.081-1.681c0.554,0.8,1.048,1.61,1.472,2.428  c-1.524,0.931-3.196,1.658-4.964,2.171C79.603,61.527,79.049,60.65,78.44,59.777z M79.285,58.771  c-0.435,0.136-0.871,0.244-1.307,0.355c-0.832-1.137-1.748-2.262-2.749-3.355c1.351-0.419,2.705-0.941,4.041-1.586  c0.293-0.141,0.579-0.29,0.865-0.44c1.127,1.101,2.145,2.251,3.021,3.437C81.94,57.807,80.647,58.344,79.285,58.771z M80.824,53.37  c1.554-0.868,2.988-1.852,4.27-2.928c1.077,1.085,2.021,2.241,2.803,3.454c-1.203,1.102-2.575,2.082-4.083,2.919  C82.943,55.627,81.938,54.474,80.824,53.37z M85.659,49.948c1.14-1.017,2.147-2.104,2.998-3.239c0.94,1.113,1.714,2.299,2.319,3.53  c-0.703,1.116-1.545,2.166-2.521,3.133C87.669,52.171,86.725,51.026,85.659,49.948z M77.897,30.102  c0.075-0.176,0.148-0.352,0.217-0.525c1.097,0.189,2.157,0.476,3.179,0.85C80.197,30.233,79.06,30.127,77.897,30.102z   M77.341,29.458c-0.083,0.203-0.167,0.406-0.257,0.612c-1.598-0.114-3.238-0.071-4.903,0.188c-0.205,0.032-0.402,0.086-0.605,0.124  c1.768-0.53,3.522-0.856,5.215-1C76.977,29.401,77.157,29.435,77.341,29.458z M70.239,30.037c0.017-0.037,0.032-0.074,0.048-0.111  c0.412-0.11,0.826-0.216,1.249-0.297C71.104,29.755,70.672,29.888,70.239,30.037z M69.248,30.397  c-0.743,0.286-1.485,0.595-2.221,0.95c-1.324,0.639-2.569,1.367-3.73,2.161c1.768-1.464,3.817-2.596,6.048-3.319  C69.314,30.258,69.28,30.328,69.248,30.397z M61.81,32.576c-0.166,0.44-0.335,0.864-0.503,1.289  c-3.075,2.68-5.386,5.734-6.567,8.689c-0.065-0.023-0.133-0.044-0.2-0.066c1.287-3.258,3.896-6.904,7.361-10.161  C61.87,32.411,61.841,32.491,61.81,32.576z M52.994,42.101c-0.115-0.021-0.23-0.041-0.346-0.059  c0.442-1.718,1.138-3.667,2.055-5.729c-0.286,1.285-0.568,2.461-0.845,3.547C53.518,40.63,53.229,41.379,52.994,42.101z   M46.99,42.103c-0.233-0.709-0.518-1.444-0.851-2.199c-0.276-1.086-0.559-2.262-0.845-3.547c0.909,2.045,1.602,3.978,2.044,5.686  C47.221,42.062,47.105,42.082,46.99,42.103z M36.697,33.552c-1.16-0.793-2.405-1.521-3.727-2.159  c-0.736-0.355-1.478-0.664-2.221-0.951c-0.032-0.069-0.066-0.139-0.097-0.207C32.882,30.958,34.929,32.089,36.697,33.552z   M29.757,30.081c-0.431-0.148-0.861-0.281-1.292-0.407c0.422,0.081,0.833,0.187,1.244,0.296  C29.726,30.008,29.741,30.044,29.757,30.081z M28.425,30.429c-0.205-0.038-0.403-0.092-0.61-0.125  c-1.664-0.259-3.305-0.301-4.902-0.187c-0.09-0.207-0.175-0.411-0.258-0.614c0.184-0.024,0.364-0.058,0.549-0.076  C24.9,29.571,26.655,29.898,28.425,30.429z M21.883,29.621c0.069,0.174,0.142,0.349,0.217,0.525c-1.16,0.025-2.295,0.13-3.389,0.323  C19.73,30.096,20.788,29.81,21.883,29.621z M8.354,39.98c0.093,0.686,0.253,1.384,0.482,2.09c0.015,0.045,0.034,0.09,0.049,0.134  c-0.732,1.029-1.354,2.118-1.842,3.26c-0.057-0.296-0.097-0.592-0.131-0.887C7.192,42.962,7.681,41.422,8.354,39.98z M6.99,47.953  c0.184,0.475,0.388,0.949,0.628,1.42c0.164,0.322,0.365,0.628,0.551,0.94c-0.215,0.465-0.404,0.933-0.568,1.404  c-0.37-0.966-0.641-1.954-0.803-2.957C6.852,48.49,6.92,48.221,6.99,47.953z M8.628,51.091c0.715,1.068,1.56,2.072,2.517,3.001  c-0.388,0.647-0.74,1.3-1.03,1.959c-0.167-0.209-0.349-0.407-0.506-0.623c-0.616-0.849-1.14-1.737-1.57-2.653  C8.197,52.211,8.393,51.649,8.628,51.091z M11.704,54.588c1.207,1.089,2.569,2.061,4.063,2.896c-0.545,0.793-1.035,1.59-1.451,2.386  c-1.366-0.907-2.607-1.963-3.671-3.168C10.937,55.993,11.291,55.287,11.704,54.588z M10.342,57.491  c1.068,1.159,2.3,2.176,3.642,3.058c-0.222,0.466-0.42,0.929-0.595,1.39c-1.258-1.029-2.367-2.228-3.315-3.55  C10.155,58.089,10.239,57.79,10.342,57.491z M14.591,60.948c1.527,0.927,3.197,1.653,4.958,2.177  c-0.323,0.611-0.622,1.217-0.882,1.814c-1.692-0.624-3.265-1.488-4.682-2.554C14.159,61.909,14.364,61.43,14.591,60.948z   M18.388,65.634c-0.137,0.345-0.272,0.689-0.386,1.026c-1.462-0.489-2.864-1.134-4.159-1.966c-0.149-0.096-0.283-0.206-0.428-0.305  c0.085-0.413,0.193-0.83,0.324-1.253C15.155,64.172,16.716,65.015,18.388,65.634z M19.054,65.878  c1.774,0.582,3.659,0.908,5.617,0.942c-0.129,0.287-0.247,0.57-0.366,0.853c-1.931,0.002-3.827-0.256-5.63-0.785  C18.789,66.557,18.917,66.219,19.054,65.878z M23.995,68.427c-0.087,0.223-0.165,0.442-0.245,0.662  c-1.93,0.04-3.796-0.163-5.531-0.608c0.068-0.29,0.139-0.581,0.228-0.88C20.226,68.124,22.092,68.401,23.995,68.427z M24.802,68.416  c0.961-0.023,1.928-0.096,2.897-0.25c1.154-0.183,2.262-0.468,3.332-0.818c-0.061,0.154-0.12,0.308-0.18,0.461  c-0.13,0.045-0.253,0.099-0.385,0.142c-1.983,0.644-3.971,0.997-5.906,1.108C24.641,68.845,24.714,68.633,24.802,68.416z   M30.504,68.719c-0.113,0.307-0.217,0.609-0.322,0.912c-2.132,0.78-4.26,1.255-6.301,1.442c0.12-0.413,0.249-0.829,0.397-1.254  C26.316,69.731,28.412,69.38,30.504,68.719z M31.427,68.394c2.576-0.927,4.873-2.23,6.82-3.798c-0.062,0.2-0.128,0.402-0.189,0.601  c-1.443,1.165-3.05,2.212-4.793,3.1c-0.717,0.365-1.439,0.683-2.163,0.977C31.208,68.983,31.315,68.69,31.427,68.394z   M33.606,68.966c1.466-0.747,2.83-1.613,4.095-2.557c-0.101,0.345-0.2,0.69-0.296,1.031c-0.363,0.287-0.724,0.576-1.105,0.852  c-1.97,1.431-4.007,2.577-6.019,3.454c0.151-0.5,0.312-1.008,0.488-1.525C31.718,69.86,32.667,69.444,33.606,68.966z M38.715,65.622  c2.296-1.89,4.176-4.077,5.472-6.434c1.687-3.069,2.235-6.132,1.645-8.86c0.128-0.148,0.266-0.288,0.376-0.452  c0.232,0.654,0.366,1.352,0.407,2.087c-0.416,1.733-0.836,3.684-1.247,5.788c-1.354,2.997-3.75,6.104-6.94,8.844  C38.523,66.271,38.617,65.948,38.715,65.622z M44.917,60.147c-0.043,0.238-0.087,0.473-0.13,0.713  c-1.416,2.298-3.257,4.647-5.48,6.871c-0.534,0.533-1.075,1.039-1.621,1.529c0.119-0.456,0.247-0.918,0.376-1.383  C40.995,65.519,43.32,62.841,44.917,60.147z M46.106,57.874c0.886-2.025,1.313-4,1.251-5.8c0.169-0.701,0.333-1.355,0.492-1.947  c0.495,2.306-0.221,5.416-1.937,8.756C45.977,58.54,46.041,58.205,46.106,57.874z M46.004,60.224  c-0.17,0.347-0.345,0.695-0.53,1.045c0.011-0.063,0.022-0.127,0.033-0.19C45.68,60.793,45.845,60.509,46.004,60.224z M52.148,50.083  c0.154,0.575,0.313,1.208,0.477,1.886c-0.081,1.803,0.336,3.813,1.282,5.943c0.059,0.305,0.119,0.613,0.179,0.928  C52.369,55.499,51.653,52.389,52.148,50.083z M54.489,61.037c0.011,0.062,0.022,0.126,0.033,0.189  c-0.183-0.348-0.357-0.694-0.527-1.039C54.154,60.469,54.318,60.752,54.489,61.037z M55.089,60.15  c1.64,2.746,3.987,5.391,6.849,7.688c0.13,0.468,0.252,0.926,0.37,1.377c-0.545-0.49-1.087-0.995-1.62-1.529  c-2.224-2.224-4.065-4.573-5.481-6.871C55.17,60.598,55.13,60.377,55.089,60.15z M54.628,57.682  c-0.368-1.905-0.792-3.938-1.243-5.816c0.044-0.723,0.176-1.405,0.402-2.039c0.111,0.167,0.251,0.311,0.383,0.461  c-1.052,4.96,1.75,10.852,7.113,15.284c0.101,0.333,0.189,0.649,0.284,0.974C58.458,63.879,56.031,60.803,54.628,57.682z   M62.293,66.356c1.254,0.94,2.615,1.81,4.097,2.565c0.935,0.476,1.884,0.895,2.839,1.259c0.175,0.517,0.336,1.024,0.487,1.524  c-2.042-0.889-4.077-2.046-6.02-3.458c-0.381-0.276-0.744-0.566-1.109-0.854C62.492,67.047,62.394,66.701,62.293,66.356z   M66.73,68.253c-1.763-0.899-3.369-1.949-4.795-3.103c-0.06-0.199-0.121-0.397-0.183-0.595c1.946,1.566,4.243,2.869,6.818,3.795  c0.112,0.296,0.219,0.589,0.325,0.882C68.168,68.935,67.444,68.617,66.73,68.253z M69.493,68.674  c2.062,0.652,4.153,1.013,6.211,1.105c0.148,0.427,0.278,0.842,0.398,1.25c-2.069-0.189-4.189-0.671-6.285-1.44  C69.711,69.286,69.606,68.983,69.493,68.674z M69.531,67.906c-0.132-0.043-0.255-0.097-0.385-0.142  c-0.058-0.151-0.117-0.302-0.177-0.454c1.076,0.35,2.184,0.63,3.328,0.811c0.962,0.153,1.922,0.226,2.876,0.249  c0.089,0.22,0.162,0.431,0.244,0.648C73.466,68.902,71.484,68.541,69.531,67.906z M76.02,68.381c1.896-0.028,3.756-0.304,5.53-0.826  c0.089,0.302,0.161,0.595,0.229,0.888c-1.76,0.454-3.618,0.651-5.514,0.611C76.183,68.829,76.11,68.609,76.02,68.381z   M75.703,67.629c-0.12-0.285-0.233-0.566-0.364-0.855c1.953-0.035,3.834-0.36,5.603-0.941c0.137,0.341,0.266,0.679,0.379,1.011  C79.523,67.372,77.631,67.63,75.703,67.629z M81.938,66.354c-0.091-0.256-0.204-0.516-0.307-0.775  c1.662-0.618,3.213-1.456,4.622-2.487c0.132,0.424,0.242,0.842,0.327,1.251c-0.145,0.099-0.278,0.209-0.427,0.304  c-1.289,0.827-2.683,1.47-4.137,1.958C81.988,66.521,81.969,66.441,81.938,66.354z M81.355,64.883  c-0.262-0.6-0.563-1.204-0.885-1.81c1.749-0.523,3.409-1.244,4.927-2.165c0.057,0.121,0.126,0.241,0.18,0.362  c0.162,0.363,0.294,0.719,0.425,1.075C84.594,63.403,83.034,64.261,81.355,64.883z M86.263,60.965  c-0.07-0.158-0.159-0.314-0.234-0.472c1.335-0.879,2.561-1.891,3.624-3.045c0.104,0.299,0.192,0.595,0.272,0.891  c-0.945,1.318-2.049,2.515-3.302,3.542C86.507,61.576,86.4,61.274,86.263,60.965z M85.694,59.817c-0.421-0.804-0.909-1.6-1.45-2.386  c1.489-0.833,2.846-1.802,4.048-2.887c0.091,0.154,0.194,0.304,0.28,0.459c0.304,0.552,0.557,1.102,0.783,1.651  C88.294,57.857,87.056,58.911,85.694,59.817z M89.229,54.642c-0.113-0.205-0.247-0.403-0.368-0.605  c0.951-0.926,1.793-1.925,2.505-2.988c0.236,0.561,0.423,1.13,0.584,1.703c-0.428,0.908-0.95,1.789-1.562,2.631  c-0.154,0.212-0.332,0.405-0.496,0.61C89.693,55.543,89.476,55.093,89.229,54.642z M91.82,50.281  c0.189-0.317,0.392-0.627,0.558-0.953c0.244-0.478,0.45-0.96,0.636-1.442c0.071,0.272,0.132,0.546,0.188,0.82  c-0.163,1.012-0.438,2.01-0.813,2.985C92.224,51.216,92.035,50.746,91.82,50.281z M88.046,33.02  c-0.834-0.542-1.735-1.012-2.695-1.409c-0.363-0.235-0.73-0.464-1.109-0.674c0.055-0.257,0.101-0.51,0.137-0.76  c1.349,0.465,2.546,1.111,3.541,1.932C87.984,32.402,88.021,32.708,88.046,33.02z M83.549,30.585  c-0.952-0.479-1.941-0.893-2.975-1.209c1.083,0.101,2.112,0.295,3.078,0.572C83.624,30.158,83.592,30.369,83.549,30.585z   M77.677,28.582c-0.256,0.011-0.516,0.036-0.775,0.056c-0.627-0.062-1.262-0.097-1.906-0.097c-1.491,0-2.936,0.189-4.33,0.513  c0.024-0.057,0.045-0.112,0.068-0.169c2.583-1.071,5.126-1.706,7.443-1.896C78.042,27.502,77.875,28.034,77.677,28.582z   M71.114,27.937c0.317-0.821,0.596-1.618,0.832-2.381c2.36-1.017,4.582-1.563,6.454-1.563c0.064,0,0.121,0.011,0.185,0.012  c0.02,0.679-0.061,1.436-0.231,2.252C76.089,26.41,73.624,26.971,71.114,27.937z M70.141,28.338  c-1.887,0.801-3.783,1.813-5.619,3.054c-0.701,0.474-1.376,0.969-2.023,1.481c0.004-0.011,0.008-0.022,0.013-0.032  c0.202-0.535,0.396-1.065,0.583-1.591c2.591-2.245,5.32-4.031,7.921-5.269C70.762,26.738,70.47,27.526,70.141,28.338z   M63.569,29.876c0.376-1.121,0.711-2.207,1.01-3.256c2.604-2.382,5.233-4.182,7.504-5.161c-0.112,1.052-0.378,2.27-0.776,3.6  C68.772,26.18,66.118,27.807,63.569,29.876z M62.447,30.828c-0.213,0.186-0.428,0.363-0.639,0.555  c-3.406,3.108-6.01,6.525-7.501,9.712c0.078-0.295,0.154-0.592,0.23-0.89c1.216-2.761,3.104-5.813,5.484-8.745  c1.115-1.374,2.286-2.647,3.472-3.811C63.185,28.663,62.838,29.722,62.447,30.828z M59.439,30.987  c-1.632,2.01-3.023,4.053-4.139,6.026c0.302-1.334,0.56-2.556,0.758-3.526c0.429-0.83,0.888-1.668,1.375-2.507  c2.578-4.44,5.31-7.912,7.706-10.216c-0.238,1.535-0.64,3.361-1.217,5.419C62.404,27.596,60.89,29.2,59.439,30.987z M55.744,31.21  c-0.129,0.687-0.258,1.35-0.388,1.999c-1.051,2.036-1.912,4.009-2.567,5.839c0.587-2.384,1.437-5.149,2.589-8.201  c0.261-0.691,0.526-1.358,0.792-2.013C56.037,29.603,55.898,30.389,55.744,31.21L55.744,31.21z M43.937,33.53  c0.198,0.97,0.457,2.192,0.759,3.526c-1.117-1.973-2.507-4.014-4.138-6.024c-1.451-1.787-2.966-3.391-4.484-4.804  c-0.577-2.058-0.978-3.882-1.216-5.417c2.396,2.304,5.128,5.775,7.706,10.213C43.05,31.863,43.508,32.701,43.937,33.53z   M39.976,31.505c2.379,2.931,4.266,5.982,5.482,8.742c0.076,0.299,0.153,0.596,0.231,0.893c-1.491-3.187-4.095-6.604-7.501-9.712  c-0.21-0.192-0.426-0.369-0.638-0.555c-0.39-1.105-0.737-2.165-1.047-3.18C37.689,28.857,38.86,30.131,39.976,31.505z   M36.427,29.921c-2.548-2.068-5.202-3.696-7.737-4.818c-0.398-1.33-0.664-2.547-0.776-3.599c2.271,0.979,4.899,2.779,7.503,5.16  C35.716,27.714,36.051,28.8,36.427,29.921z M36.907,31.307c0.186,0.522,0.378,1.048,0.578,1.578c0.004,0.01,0.008,0.021,0.012,0.031  c-0.647-0.511-1.321-1.006-2.022-1.48c-1.836-1.241-3.732-2.252-5.62-3.053c-0.33-0.813-0.622-1.602-0.875-2.362  C31.584,27.261,34.314,29.06,36.907,31.307z M29.267,28.942c0.022,0.053,0.042,0.105,0.064,0.158  c-1.394-0.325-2.84-0.513-4.331-0.513c-0.641,0-1.275,0.034-1.9,0.096c-0.261-0.02-0.523-0.045-0.781-0.056  c-0.198-0.547-0.365-1.078-0.499-1.59C24.139,27.226,26.683,27.869,29.267,28.942z M19.422,29.421  c-1.034,0.316-2.023,0.73-2.975,1.209c-0.043-0.216-0.075-0.427-0.103-0.637C17.311,29.716,18.34,29.522,19.422,29.421z   M7.778,53.887c0.364,0.677,0.76,1.342,1.224,1.981c0.248,0.341,0.527,0.66,0.799,0.983c-0.092,0.244-0.195,0.488-0.274,0.732  c-0.717-1.12-1.31-2.324-1.773-3.591C7.76,53.957,7.772,53.922,7.778,53.887z M9.848,59.336c0.953,1.24,2.048,2.362,3.271,3.336  c-0.138,0.421-0.262,0.839-0.358,1.251c-1.189-0.896-2.221-1.916-3.092-3.037C9.694,60.373,9.75,59.857,9.848,59.336z M13.26,65.198  c0.061,0.04,0.116,0.087,0.178,0.127c1.354,0.87,2.816,1.551,4.345,2.059c-0.089,0.303-0.171,0.602-0.24,0.896  c-1.596-0.475-3.065-1.151-4.363-2.009C13.189,65.92,13.211,65.563,13.26,65.198z M18.057,69.21  c1.654,0.423,3.417,0.647,5.241,0.647c0.058,0,0.117-0.007,0.175-0.007c-0.146,0.436-0.278,0.866-0.397,1.289  c-1.835,0.1-3.581-0.041-5.176-0.413C17.919,70.239,17.963,69.737,18.057,69.21z M21.958,71.917c0.307,0,0.621-0.017,0.933-0.03  c-0.155,0.643-0.276,1.258-0.352,1.837c-1.572,0.088-3.03-0.046-4.304-0.428c-0.193-0.551-0.315-1.154-0.347-1.811  C19.167,71.769,20.532,71.917,21.958,71.917z M23.672,71.842c2.01-0.157,4.104-0.592,6.205-1.308  c-0.175,0.538-0.338,1.066-0.486,1.585c-2.108,0.834-4.172,1.359-6.086,1.552C23.386,73.095,23.509,72.484,23.672,71.842z   M30.022,72.652c2.247-0.918,4.525-2.159,6.719-3.753c0.115-0.084,0.221-0.174,0.335-0.259c-0.133,0.5-0.258,0.991-0.38,1.479  c-2.407,2.023-4.874,3.607-7.203,4.683C29.637,74.113,29.817,73.393,30.022,72.652z M37.363,70.536  c0.837-0.709,1.665-1.464,2.474-2.273c1.799-1.799,3.344-3.685,4.631-5.568c-0.03,0.179-0.061,0.355-0.091,0.534  c-0.8,1.354-1.683,2.714-2.657,4.055c-1.575,2.168-3.257,4.124-4.942,5.804C36.953,72.261,37.147,71.411,37.363,70.536z   M45.095,63.487c0.127-0.217,0.262-0.434,0.385-0.651c-0.14,0.319-0.289,0.641-0.436,0.962  C45.062,63.696,45.078,63.589,45.095,63.487z M44.631,66.401c1.093-2.184,2.049-4.358,2.83-6.442  c-0.478,1.806-1.031,3.684-1.65,5.589c-0.59,1.814-1.188,3.49-1.784,5.052C44.203,69.278,44.404,67.877,44.631,66.401z   M55.367,66.358c0.226,1.472,0.427,2.87,0.603,4.19c-0.596-1.56-1.194-3.233-1.783-5.045c-0.641-1.974-1.18-3.826-1.64-5.561  C53.326,62.017,54.277,64.182,55.367,66.358z M54.517,62.794c0.122,0.216,0.258,0.434,0.385,0.651  c0.017,0.102,0.034,0.208,0.051,0.311C54.806,63.434,54.657,63.113,54.517,62.794z M58.277,67.239  c-0.975-1.342-1.859-2.703-2.659-4.058c-0.028-0.169-0.058-0.346-0.09-0.531c1.287,1.883,2.832,3.768,4.63,5.567  c0.809,0.809,1.637,1.563,2.473,2.272c0.22,0.896,0.423,1.765,0.595,2.582C61.521,71.366,59.843,69.395,58.277,67.239z   M63.295,70.07c-0.122-0.489-0.247-0.982-0.379-1.478c0.115,0.086,0.223,0.177,0.34,0.262c2.165,1.573,4.446,2.848,6.728,3.785  c0.201,0.73,0.378,1.439,0.521,2.119C68.173,73.682,65.704,72.096,63.295,70.07z M76.607,73.616  c-1.937-0.204-3.966-0.738-6.001-1.543c-0.148-0.517-0.31-1.044-0.485-1.58c2.067,0.708,4.152,1.154,6.187,1.315  c0.161,0.631,0.292,1.24,0.376,1.813C76.659,73.618,76.634,73.619,76.607,73.616z M77.124,71.855  c0.306,0.013,0.613,0.031,0.916,0.031c0.842,0,1.671-0.051,2.48-0.152c0.546-0.069,1.073-0.162,1.585-0.276  c-0.033,0.647-0.153,1.241-0.343,1.785c-1.25,0.375-2.697,0.518-4.298,0.428C77.39,73.093,77.276,72.487,77.124,71.855z   M80.427,70.989c-1.132,0.142-2.303,0.174-3.495,0.111c-0.117-0.421-0.244-0.848-0.391-1.286c0.063,0.001,0.127,0.008,0.19,0.008  c1.789,0,3.54-0.22,5.211-0.648c0.093,0.526,0.138,1.027,0.155,1.513C81.559,70.812,81.005,70.916,80.427,70.989z M83.506,67.911  c-0.334,0.122-0.68,0.218-1.023,0.321c-0.07-0.295-0.151-0.596-0.242-0.902c1.518-0.508,2.971-1.186,4.317-2.051  c0.059-0.038,0.111-0.082,0.169-0.121c0.05,0.37,0.073,0.73,0.083,1.084C85.816,66.899,84.719,67.467,83.506,67.911z M87.255,63.863  c-0.096-0.41-0.221-0.828-0.36-1.25c1.22-0.973,2.311-2.095,3.262-3.334c0.1,0.524,0.154,1.04,0.179,1.551  C89.467,61.949,88.439,62.969,87.255,63.863z M90.479,57.521c-0.078-0.242-0.18-0.485-0.272-0.728  c0.268-0.32,0.544-0.633,0.788-0.97c0.463-0.637,0.859-1.302,1.222-1.977c0.007,0.036,0.016,0.071,0.023,0.107  C91.779,55.212,91.19,56.407,90.479,57.521z M92.596,39.777c0.014,0.042,0.022,0.085,0.035,0.126  c-0.27-0.561-0.571-1.103-0.906-1.626c-0.004-0.157-0.008-0.315-0.02-0.47C92.063,38.428,92.363,39.086,92.596,39.777z   M89.901,34.426c-0.343-0.311-0.7-0.609-1.077-0.889c-0.002-0.209-0.016-0.412-0.033-0.615  C89.217,33.381,89.587,33.884,89.901,34.426z M86.823,29.738c0.283,0.362,0.516,0.756,0.703,1.176  c-0.914-0.607-1.938-1.107-3.067-1.48c0.014-0.203,0.029-0.406,0.029-0.603c0-0.334-0.039-0.647-0.081-0.957  C85.377,28.329,86.202,28.943,86.823,29.738z M83.336,26.693c-1.258-0.362-2.679-0.517-4.207-0.477  c0.148-0.772,0.217-1.496,0.203-2.161c1.22,0.134,2.259,0.526,3.027,1.227C82.787,25.673,83.107,26.149,83.336,26.693z   M75.468,20.619c0.703,0,1.315,0.153,1.809,0.474c0.668,0.435,1.086,1.161,1.243,2.159c0.003,0.016,0.002,0.035,0.005,0.051  c-1.863-0.014-4.026,0.456-6.325,1.375c0.357-1.3,0.579-2.485,0.656-3.522C73.814,20.81,74.698,20.619,75.468,20.619z   M70.425,17.561c0.242,0,0.46,0.042,0.651,0.128c0.395,0.176,0.685,0.544,0.861,1.093c0.159,0.492,0.221,1.108,0.203,1.815  c-2.189,0.863-4.675,2.473-7.188,4.656c0.516-1.977,0.879-3.774,1.065-5.295C67.803,18.403,69.352,17.561,70.425,17.561z   M64.593,15.489c0.056,0,0.108,0.007,0.158,0.021c0.144,0.04,0.264,0.159,0.367,0.364c0.313,0.618,0.384,1.908,0.18,3.735  c-2.725,2.432-5.783,6.295-8.513,10.994c-0.086,0.147-0.165,0.294-0.249,0.441c0.309-1.666,0.599-3.381,0.854-5.061  C60.32,19.512,63.255,15.489,64.593,15.489z M52.777,30.853c1.834-9.787,3.843-15.819,4.632-16.559  c0.379,0.777,0.259,4.875-0.745,11.503c-0.705,1.555-1.377,3.172-1.987,4.786c-1.595,4.22-2.717,8.181-3.268,11.313  c-0.087-0.007-0.173-0.013-0.261-0.019C51.418,39.065,51.935,35.35,52.777,30.853z M42.587,14.339  c0.789,0.741,2.797,6.772,4.632,16.559c0.838,4.473,1.354,8.173,1.625,10.979c-0.089,0.006-0.177,0.012-0.265,0.02  c-0.554-3.124-1.673-7.068-3.26-11.268c-0.611-1.617-1.284-3.237-1.989-4.794C42.328,19.21,42.209,15.115,42.587,14.339z   M34.878,15.92c0.104-0.205,0.224-0.324,0.368-0.364c1.254-0.351,4.31,3.737,7.36,10.475c0.254,1.678,0.544,3.392,0.853,5.056  c-0.083-0.147-0.163-0.292-0.248-0.439c-2.73-4.701-5.788-8.566-8.513-10.999C34.494,17.825,34.566,16.537,34.878,15.92z   M28.059,18.827c0.177-0.549,0.467-0.917,0.861-1.093c1.038-0.465,2.869,0.366,5.059,2.273c0.186,1.52,0.549,3.317,1.065,5.292  c-2.512-2.183-4.998-3.793-7.187-4.656C27.839,19.935,27.9,19.319,28.059,18.827z M21.477,23.296  c0.157-0.998,0.576-1.724,1.244-2.159c0.493-0.321,1.104-0.474,1.808-0.474c0.769,0,1.654,0.191,2.612,0.537  c0.078,1.037,0.299,2.222,0.656,3.522c-2.299-0.919-4.463-1.391-6.326-1.376C21.475,23.331,21.475,23.312,21.477,23.296z   M17.637,25.327c0.768-0.701,1.809-1.09,3.027-1.224c-0.014,0.664,0.056,1.386,0.203,2.157c-1.529-0.04-2.949,0.116-4.208,0.477  C16.89,26.194,17.209,25.718,17.637,25.327z M13.172,29.783c0.621-0.795,1.447-1.409,2.417-1.865  c-0.042,0.311-0.081,0.624-0.081,0.958c0,0.197,0.015,0.4,0.029,0.603c-1.129,0.374-2.154,0.874-3.068,1.481  C12.657,30.54,12.889,30.145,13.172,29.783z M11.206,32.967c-0.017,0.202-0.031,0.405-0.033,0.613  c-0.377,0.28-0.734,0.578-1.076,0.888C10.41,33.928,10.78,33.426,11.206,32.967z M7.401,39.823c0.227-0.676,0.538-1.307,0.885-1.916  c-0.01,0.137-0.01,0.277-0.014,0.415c-0.335,0.524-0.637,1.067-0.907,1.628C7.379,39.909,7.387,39.865,7.401,39.823z M6.516,52.536  c0.134,0.514,0.288,1.02,0.463,1.516c-0.053,0.313-0.076,0.626-0.106,0.94c-0.072-0.319-0.155-0.634-0.206-0.959  C6.587,53.533,6.543,53.034,6.516,52.536z M8.92,61.138c-0.004,0.174-0.014,0.35-0.01,0.523c-0.244-0.461-0.459-0.938-0.64-1.435  C8.472,60.538,8.695,60.838,8.92,61.138z M10.604,65.535c-0.105-0.206-0.177-0.422-0.265-0.633c0.633,0.655,1.338,1.252,2.104,1.786  c0.005,0.469,0.05,0.924,0.123,1.368C11.771,67.332,11.096,66.501,10.604,65.535z M14.435,70.735  c-0.163-0.224-0.292-0.466-0.423-0.707c0.962,0.546,2.029,0.977,3.179,1.288c0.012,0.586,0.068,1.145,0.191,1.662  C16.178,72.476,15.166,71.741,14.435,70.735z M19.287,75.023c-0.261-0.261-0.473-0.561-0.66-0.88  c0.941,0.22,1.952,0.342,3.029,0.342c0.262,0,0.539-0.029,0.808-0.042c-0.055,0.698-0.061,1.354,0.01,1.937  C21.185,76.256,20.088,75.825,19.287,75.023z M24.493,78.872c-0.522-0.379-0.885-0.976-1.099-1.742  c1.539-0.033,3.274-0.423,5.11-1.133c-0.16,1.013-0.255,2.062-0.219,3.02C26.725,79.535,25.403,79.534,24.493,78.872z   M30.113,81.694c-0.573-0.292-0.921-1.033-1.041-2.143c1.974-0.76,4.216-2.232,6.519-4.283c-0.119,0.686-0.227,1.356-0.31,1.987  c-0.092,0.695-0.15,1.318-0.194,1.91C32.933,81.293,31.135,82.216,30.113,81.694z M36.458,83.408  c-0.441-0.143-0.813-1.281-0.646-3.932c2.591-2.641,5.397-6.679,7.76-11.034c-0.199,1.403-0.43,3.113-0.644,4.915  C40.084,80.121,37.477,83.743,36.458,83.408z M47.767,65.746c-1.837,11.604-3.797,18.598-4.625,19.614  c-0.348-0.9-0.276-5.08,0.518-11.848c1.023-2.439,2.005-5.087,2.864-7.731c1.008-3.103,1.842-6.134,2.461-8.905  C48.692,59.452,48.295,62.413,47.767,65.746z M56.855,85.316c-0.828-1.018-2.787-8.012-4.626-19.615  c-0.533-3.363-0.932-6.349-1.225-8.941c0.637,2.87,1.494,5.974,2.469,8.975c0.859,2.644,1.841,5.293,2.864,7.732  C57.131,80.236,57.203,84.416,56.855,85.316z M63.538,83.363c-0.996,0.333-3.618-3.293-6.471-10.065  c-0.214-1.797-0.443-3.502-0.642-4.9c2.358,4.346,5.157,8.376,7.744,11.017C64.321,81.782,64.082,83.187,63.538,83.363z   M69.884,81.649c-1.028,0.524-2.829-0.402-4.986-2.534c-0.083-1.169-0.257-2.493-0.506-3.922c1.145,1.018,2.291,1.92,3.414,2.659  c1.106,0.728,2.151,1.278,3.119,1.654C70.805,80.616,70.456,81.358,69.884,81.649z M75.503,78.827  c-0.88,0.64-2.197,0.672-3.791,0.153c0.037-0.96-0.059-2.012-0.219-3.027c1.835,0.71,3.57,1.099,5.108,1.132  C76.391,77.838,76.037,78.439,75.503,78.827z M80.709,74.979c-0.8,0.801-1.895,1.232-3.183,1.357  c0.071-0.583,0.068-1.231,0.016-1.918c0.272,0.013,0.555,0.044,0.819,0.044c1.078,0,2.074-0.123,2.996-0.339  C81.173,74.432,80.964,74.724,80.709,74.979z M85.561,70.689c-0.715,0.984-1.712,1.723-2.921,2.232  c0.124-0.513,0.18-1.073,0.194-1.66c1.154-0.313,2.21-0.74,3.153-1.277C85.856,70.225,85.723,70.466,85.561,70.689z M89.393,65.49  c-0.484,0.95-1.149,1.78-1.944,2.508c0.075-0.444,0.122-0.9,0.128-1.373c0.765-0.536,1.463-1.126,2.085-1.773  C89.573,65.066,89.498,65.284,89.393,65.49z M91.096,61.603c0.004-0.175-0.002-0.351-0.006-0.528  c0.222-0.296,0.442-0.593,0.641-0.901C91.551,60.666,91.338,61.142,91.096,61.603z M93.119,54.974  c-0.03-0.311-0.062-0.622-0.114-0.933c0.183-0.516,0.343-1.041,0.482-1.577c-0.028,0.507-0.076,1.015-0.156,1.522  C93.278,54.322,93.194,54.646,93.119,54.974z"/></svg>