<svg id="Layer_1" data-name="Layer 1" xmlns="http://www.w3.org/2000/svg" viewBox="0 0 65 65"><defs><style>.cls-1{fill:#afc5d1;}.cls-2{fill:#43505a;}</style></defs><title>Artboard 2</title><g id="Twitter"><circle id="back" class="cls-1" cx="32.5" cy="32.5" r="32.5"/><path id="Twitter-2" data-name="Twitter" class="cls-2" d="M50.7,21.21a14.92,14.92,0,0,1-4.29,1.18,7.49,7.49,0,0,0,3.28-4.13A15,15,0,0,1,45,20.07a7.47,7.47,0,0,0-12.73,6.81,21.2,21.2,0,0,1-15.39-7.8,7.48,7.48,0,0,0,2.31,10,7.44,7.44,0,0,1-3.38-.93s0,.06,0,.09a7.47,7.47,0,0,0,6,7.32,7.49,7.49,0,0,1-3.37.13,7.48,7.48,0,0,0,7,5.19A15,15,0,0,1,16.08,44a15.19,15.19,0,0,1-1.78-.1,21.14,21.14,0,0,0,11.45,3.35C39.48,47.29,47,35.91,47,26q0-.49,0-1A15.17,15.17,0,0,0,50.7,21.21Z"/></g></svg>